<svg width="24" height="24" viewBox="0 0 24 24" fill="none" xmlns="http://www.w3.org/2000/svg">
<path d="M19.9989 4.56017C22.5728 8.38522 23.8511 12.6763 23.4164 17.6081C21.5693 18.9398 19.7777 19.783 18.0086 20.3584C17.7262 19.9495 17.4622 19.5266 17.2192 19.09C17.7366 18.8728 18.2355 18.6241 18.7197 18.3411C19.0841 18.1283 19.0967 17.6217 18.7728 17.3806L18.7726 17.3804C18.6531 17.2916 18.5339 17.1977 18.4195 17.1034L18.4195 17.1034L18.4132 17.0983C18.2485 16.967 18.016 16.9305 17.811 17.0269C14.064 18.7573 9.96509 18.758 6.1692 17.0249L6.16562 17.0233C5.96956 16.9356 5.73548 16.9633 5.56416 17.1059L5.88396 17.4902M19.9989 4.56017L0.0991801 17.8436C-0.31895 13.3657 0.533392 8.83157 3.64479 4.18321C3.65233 4.17084 3.66368 4.16131 3.67693 4.15559C5.20756 3.45277 6.84791 2.93565 8.56205 2.64042M19.9989 4.56017C18.6287 3.94177 17.169 3.47515 15.6465 3.18733C15.4877 3.49291 15.3266 3.83738 15.2052 4.12271L15.0538 4.4788L14.6711 4.42151C12.8749 4.15261 11.0901 4.15284 9.33387 4.42128L8.94705 4.4804L8.7967 4.11913C8.67786 3.83356 8.51256 3.49348 8.34944 3.18683C6.82681 3.47391 5.3661 3.9408 3.99427 4.56048C1.04845 9.00665 0.215784 13.3305 0.580193 17.6087C2.42756 18.9404 4.21925 19.7836 5.98105 20.359C6.26731 19.9504 6.53151 19.5278 6.77143 19.0912C6.25211 18.8713 5.75314 18.6195 5.27101 18.343L5.26758 18.3411C4.91356 18.1343 4.88028 17.6294 5.21297 17.381M19.9989 4.56017L5.51973 17.9093C5.47244 17.8817 5.46865 17.814 5.51216 17.7816M5.88396 17.4902C5.87176 17.5003 5.8595 17.5103 5.84719 17.5204C5.8209 17.5055 5.79466 17.4906 5.76845 17.4755L5.6555 17.6725C5.60793 17.7093 5.56004 17.7458 5.51216 17.7816M5.88396 17.4902L5.5659 17.1044C5.45298 17.1975 5.33358 17.2906 5.21297 17.381M5.88396 17.4902C5.90569 17.4721 5.93598 17.4683 5.96153 17.4798C9.88928 19.273 14.1415 19.273 18.023 17.4798C18.0485 17.4674 18.0788 17.4712 18.1015 17.4893C18.1143 17.4999 18.1273 17.5105 18.1403 17.5211C18.1653 17.5067 18.1903 17.4922 18.2153 17.4776L18.2155 17.4775C18.1904 17.4922 18.1676 17.5086 18.1471 17.5266C18.2064 17.5749 18.2669 17.6231 18.328 17.6706C18.3281 17.6706 18.3282 17.6707 18.3283 17.6708C18.3766 17.7082 18.4253 17.7453 18.4742 17.7816C18.5177 17.814 18.5149 17.8817 18.4676 17.9093C18.4164 17.9392 18.3649 17.9688 18.3133 17.998L18.1758 18.1828C18.1758 18.1828 18.1757 18.1828 18.1757 18.1827L18.3131 17.9981C18.2434 18.0375 18.1734 18.0761 18.1031 18.1141C18.1236 18.1387 18.1473 18.1615 18.1743 18.1817C18.1468 18.1613 18.1195 18.1407 18.0922 18.1199C17.6104 18.3792 17.1125 18.6052 16.5945 18.8007M5.51216 17.7816L5.21361 17.3806C5.21339 17.3807 5.21318 17.3809 5.21297 17.381M5.51216 17.7816L5.21233 17.3815C5.21254 17.3814 5.21276 17.3812 5.21297 17.381M16.5945 18.8007C16.552 18.8169 16.533 18.8664 16.5538 18.9073M16.5945 18.8007L16.6216 18.8724M16.5945 18.8007L16.6217 18.8723L16.6216 18.8724M16.5538 18.9073C16.9143 19.6054 17.3258 20.2701 17.7789 20.9006C17.7978 20.9272 17.8319 20.9387 17.8631 20.9291M16.5538 18.9073L16.6216 18.8724M16.5538 18.9073L16.6217 18.8728L16.6216 18.8724M17.8631 20.9291C19.8241 20.3225 21.8126 19.4073 23.8654 17.8998C23.8834 17.8864 23.8948 17.8664 23.8967 17.8445C24.3971 12.6676 23.0585 8.17066 20.3482 4.18416C20.3416 4.17084 20.3303 4.16131 20.317 4.15559C18.7873 3.45371 17.147 2.9366 15.4319 2.64042C15.4007 2.63471 15.3695 2.64899 15.3534 2.67756M17.8631 20.9291L17.8409 20.8565L17.8408 20.8561L17.7171 20.4509C17.8889 20.3985 18.0777 20.4599 18.1849 20.6088M17.8631 20.9291L18.1849 20.6088M15.3534 2.67756C15.1424 3.05278 14.9087 3.54228 14.7451 3.92702C12.9004 3.65085 11.0652 3.65085 9.25832 3.92702C9.09465 3.53372 8.85248 3.05278 8.64057 2.67756M15.3534 2.67756L15.4184 2.71413L15.4191 2.71452L15.7892 2.92261C15.7892 2.92271 15.7891 2.92282 15.789 2.92292L15.4191 2.71457L15.4184 2.71418L15.3534 2.67756ZM8.64057 2.67756C8.62449 2.64995 8.59328 2.63566 8.56205 2.64042M8.64057 2.67756L8.57484 2.71469L8.56205 2.64042M8.64057 2.67756L8.57502 2.71575L8.57349 2.71545L8.56205 2.64042M18.1849 20.6088L18.1866 20.6112C18.1861 20.6104 18.1855 20.6096 18.1849 20.6088ZM8.57366 2.71655L8.63742 3.13471C8.47195 3.15994 8.29889 3.08433 8.20855 2.92926L8.57366 2.71655ZM0.597338 17.8005L0.597014 17.7971L0.597338 17.8005ZM16.6219 18.8727L16.9995 18.6806C17.1117 18.9013 17.0111 19.1771 16.7723 19.268L16.6219 18.8727ZM5.36313 12.6981C5.36313 14.2531 6.50989 15.617 8.02002 15.617C9.55053 15.617 10.6752 14.2521 10.6769 12.7016C10.6973 11.1509 9.55662 9.77914 8.02002 9.77914C6.48833 9.77914 5.36313 11.1461 5.36313 12.6981ZM13.3379 12.6981C13.3379 14.2531 14.4846 15.617 15.9947 15.617C17.5361 15.617 18.65 14.2506 18.6516 12.7016C18.672 11.1509 17.5314 9.77914 15.9947 9.77914C14.463 9.77914 13.3379 11.1461 13.3379 12.6981Z" stroke="#FF3DB0"/>
</svg>
