<svg width="24" height="24" viewBox="0 0 24 24" fill="none" xmlns="http://www.w3.org/2000/svg">
<path d="M22.4433 5.16429L22.4432 5.16435L22.45 5.1712C22.7176 5.44052 22.9288 5.93123 23.0739 6.42336C23.1431 6.65784 23.1916 6.8723 23.2227 7.02808C23.2382 7.10569 23.2493 7.16803 23.2563 7.21015C23.2599 7.23119 23.2624 7.24713 23.2639 7.25735L23.2652 7.26572L23.2653 7.26655L23.2671 7.28142L23.2745 7.34441C23.2808 7.39997 23.29 7.48201 23.301 7.58672C23.3231 7.7962 23.3526 8.09611 23.3821 8.45614C23.4413 9.17752 23.5 10.1343 23.5 11.086V12.9047C23.5 13.8588 23.4413 14.8156 23.3821 15.5363C23.3526 15.896 23.3231 16.1955 23.3011 16.4046C23.29 16.5091 23.2809 16.5909 23.2745 16.6464L23.2671 16.7092L23.2654 16.7241L23.2653 16.7249L23.2639 16.7334C23.2624 16.7436 23.2599 16.7595 23.2563 16.7806C23.2493 16.8227 23.2382 16.885 23.2227 16.9626C23.1916 17.1184 23.1431 17.3329 23.0739 17.5674C22.9288 18.0595 22.7176 18.5502 22.45 18.8195L22.4499 18.8194L22.4433 18.8264C21.7526 19.549 21.0151 19.6235 20.5061 19.6749C20.4524 19.6804 20.4012 19.6855 20.3529 19.6912C18.6901 19.8092 16.6065 19.871 14.9318 19.9031C14.0937 19.9191 13.3601 19.9278 12.8361 19.9324C12.5742 19.9347 12.3647 19.936 12.2208 19.9367L12.0558 19.9374L12.0133 19.9375L12.0026 19.9375L12.0001 19.9375L11.9868 19.9374L11.9344 19.9369L11.7336 19.9348C11.5596 19.9329 11.3088 19.93 11.0017 19.9259C10.3876 19.9178 9.54893 19.9051 8.65049 19.8867C6.85875 19.8499 4.85688 19.7909 3.90893 19.7028C3.78419 19.6798 3.64998 19.6626 3.50923 19.6446C2.90075 19.5665 2.16985 19.4727 1.55206 18.8264L1.55211 18.8264L1.54647 18.8207C1.2806 18.5513 1.07032 18.0603 0.925617 17.5679C0.85668 17.3333 0.808309 17.1187 0.777246 16.9628C0.76177 16.8852 0.75073 16.8228 0.743676 16.7807C0.740152 16.7596 0.737631 16.7436 0.736056 16.7334L0.73466 16.7242L0.732878 16.7093L0.725532 16.6463C0.719158 16.5907 0.70999 16.5087 0.698956 16.404C0.676883 16.1945 0.647379 15.8946 0.617859 15.5346C0.55871 14.8132 0.5 13.8564 0.5 12.9047V11.086C0.5 10.1346 0.559841 9.17817 0.620137 8.45693C0.650228 8.09699 0.680304 7.79715 0.702803 7.58773C0.71405 7.48305 0.723395 7.40105 0.729891 7.34551L0.737376 7.28256L0.739292 7.26688L0.739363 7.2663L0.740891 7.25601C0.742434 7.24579 0.744909 7.22986 0.748375 7.20883C0.755312 7.16673 0.766188 7.10442 0.78148 7.02684C0.812174 6.87111 0.860095 6.65672 0.928697 6.42233C1.07271 5.9303 1.28283 5.44012 1.55001 5.1712L1.55007 5.17127L1.55675 5.16429C2.24744 4.44172 2.98492 4.3672 3.49389 4.31577C3.54777 4.31033 3.59908 4.30514 3.64751 4.29948C5.30973 4.17916 7.39184 4.11861 9.06532 4.08824C9.90277 4.07305 10.6357 4.06545 11.1591 4.06165C11.4209 4.05975 11.6301 4.0588 11.7739 4.05833L11.9387 4.05792L11.9811 4.05786L11.9918 4.05786L11.9945 4.05786L11.9951 4.05786H11.9953L11.9953 3.55786V4.05786H12.0047V3.55786L12.0047 4.05786H12.0049L12.0055 4.05786L12.0082 4.05786L12.0189 4.05786L12.0613 4.05792L12.2261 4.05833C12.3699 4.0588 12.5791 4.05975 12.8409 4.06165C13.3643 4.06545 14.0972 4.07305 14.9347 4.08824C16.6082 4.11861 18.6903 4.17916 20.3525 4.29948C20.4009 4.30514 20.4522 4.31033 20.5061 4.31577C21.0151 4.3672 21.7526 4.44172 22.4433 5.16429ZM9.02031 15.1125V15.935L9.75044 15.5564L16.2333 12.1955L17.0865 11.7531L16.2345 11.3084L9.75171 7.924L9.02031 7.54217V8.36723V15.1125Z" stroke="#FF3DB0"/>
</svg>
