<svg width="24" height="24" viewBox="0 0 24 24" fill="none" xmlns="http://www.w3.org/2000/svg">
<g clip-path="url(#clip0_201_357)">
<path d="M23.5 12C23.5 17.5367 19.5866 22.1603 14.375 23.2544V15.9688H16.6711H17.1003L17.1653 15.5446L17.6973 12.0758L17.7857 11.5H17.2031H14.375V9.75C14.375 9.34765 14.4743 9.01202 14.6721 8.78327C14.8581 8.5681 15.1939 8.375 15.8306 8.375H17.3438H17.8438V7.875V4.92188V4.49996L17.4278 4.429L17.3438 4.92188L17.4278 4.42898L17.4276 4.42896L17.4273 4.4289L17.4262 4.42872L17.4226 4.42812L17.4096 4.42594L17.361 4.41806C17.319 4.41136 17.2582 4.40189 17.1814 4.39058C17.0279 4.36798 16.8099 4.33798 16.5502 4.30799C16.0329 4.24826 15.3404 4.1875 14.6576 4.1875C13.186 4.1875 11.9142 4.63531 11.0097 5.54067C10.1047 6.44655 9.625 7.75272 9.625 9.35625V11.5H7.07812H6.57812V12V15.4688V15.9688H7.07812H9.625V23.2544C4.41336 22.1603 0.5 17.5367 0.5 12C0.5 5.64872 5.64872 0.5 12 0.5C18.3513 0.5 23.5 5.64872 23.5 12Z" stroke="#FF3DB0"/>
</g>
<defs>
<clipPath id="clip0_201_357">
<rect width="24" height="24" fill="white"/>
</clipPath>
</defs>
</svg>
