<svg width="560" height="560" viewBox="0 0 560 560" fill="none" xmlns="http://www.w3.org/2000/svg">
<circle cx="280" cy="280" r="280" fill="white"/>
<path d="M234.977 293.33C218.964 288.465 184.24 277.654 173.445 273.33C171.762 272.655 169.953 271.973 168.048 271.294M220.943 336.034C214.179 337.42 207.298 337.929 200.433 337.71M168.048 271.294C154.675 266.533 136.544 261.978 123.788 261.978C122.882 261.978 121.981 262.024 121.09 262.115M168.048 271.294C163.78 260.212 156.561 230.681 161.393 200.355M297.048 131.704C278.156 138.191 270.6 162.516 287.332 173.868M297.048 131.704C304.838 130.082 322.453 129.542 330.593 140.353M297.048 131.704C248.081 111.814 209.325 128.909 185.878 153.867M287.332 173.868C267.621 187.706 280.315 201.976 292.19 205.22C319.393 209.544 341.307 221.797 348.863 227.383M287.332 173.868C291.002 171.686 296.312 168.226 302.445 163.784M345.085 124.677C342.494 137.65 305.504 174.408 287.332 191.165C310.218 196.787 337.889 217.653 348.863 227.383M345.085 124.677C340.658 130.142 335.713 135.409 330.593 140.353M345.085 124.677C345.085 130.466 342.068 142.888 332.078 158.191M348.863 227.383C337.637 204.895 318.278 189.183 310.002 184.138C319.664 175.056 326.832 166.227 332.078 158.191M302.445 163.784C300.646 162.1 298.667 158.191 303.525 153.867C308.382 149.543 313.42 151.971 314.859 153.867M302.445 163.784C306.162 161.092 310.72 157.216 314.859 153.867M314.859 153.867C320.213 149.535 325.229 145.533 330.593 140.353M332.078 158.191C339.292 167.381 351.994 183.381 358.039 204.139M358.039 204.139C362.447 219.274 372.073 234.41 402.299 239.815M358.039 204.139C363.797 186.12 378.226 149.975 389.885 149.543C404.458 149.002 414.173 189.544 402.299 239.815M402.299 239.815C417.412 244.68 426.048 250.626 439.541 264.681M439.541 264.681C439.541 254.951 442.78 237.977 455.734 247.924C458.073 241.978 465.126 232.896 474.625 244.14C478.403 240.356 487.147 235.815 491.897 247.924C497.834 263.059 499.993 306.844 479.483 310.628C476.644 311.152 473.52 310.634 470.307 309.305M439.541 264.681C440.595 282.27 456.294 303.507 470.307 309.305M470.307 309.305C473.366 322.539 474.085 353.332 459.512 376.035C441.357 404.318 412.014 441.983 341.847 437.659M341.847 437.659C341.847 336.034 283.014 303.06 257.106 286.844C231.198 270.627 211.767 264.681 185.878 233.869C165.166 209.22 177.248 170.264 185.878 153.867M341.847 437.659C323.592 436.534 307.09 432.233 292.19 425.703M200.433 337.71C184.975 337.218 169.597 333.033 155.812 326.845M200.433 337.71C220.399 370.545 249.819 407.135 292.19 425.703M185.878 153.867C172.366 168.249 163.939 185.242 161.571 199.274C161.51 199.634 161.451 199.994 161.393 200.355M161.393 200.355C154.436 193.147 141.276 182.841 144.299 199.274C90.324 145.759 53.6211 156.029 109.755 217.653C104.358 225.761 96.801 242.518 121.09 262.115M121.09 262.115C109.364 263.308 99.5315 272.274 107.056 286.844C114.113 300.507 132.73 316.484 155.812 326.845M155.812 326.845C155.213 338.377 159.196 361.116 179.922 359.819C184.6 378.378 201.404 414.523 231.199 410.631C240.014 423.922 264.555 445.545 292.19 425.703M204.211 193.868C200.433 185.219 207.017 159.056 235.516 156.029C264.015 153.002 261.964 184.138 255.487 193.868C245.788 205.76 221.955 222.409 204.211 193.868ZM233.357 189.003C233.177 185.219 235.084 177.651 244.152 177.651C251.709 177.651 252.338 183.598 251.709 187.381C250.852 192.53 245.232 195.932 240.374 195.49C235.516 195.047 233.486 191.706 233.357 189.003ZM330.512 316.034C330.778 309.305 339.256 297.222 350.483 304.141C354.441 297.835 364.517 288.465 373.153 301.439C378.19 297.655 388.481 293.547 389.345 307.385C390.425 324.683 380.249 365.224 356.96 365.224C333.671 365.224 329.793 334.232 330.512 316.034ZM71.4328 257.654C75.211 262.115 87.6252 257.654 83.3073 249.545C78.9893 241.437 67.1147 251.167 71.4328 257.654ZM66.0351 196.03C63.3363 200.895 62.3648 210.733 69.2736 217.653C77.9096 226.301 82.2275 215.49 80.6082 210.625C78.6999 204.892 73.5916 194.409 66.0351 196.03ZM171.826 404.144C160.491 398.892 163.73 374.954 179.922 396.576C183.97 401.982 175.064 405.645 171.826 404.144Z" stroke="#FF3DB0" stroke-width="9"/>
</svg>
