<svg width="409" height="306" viewBox="0 0 409 306" fill="none" xmlns="http://www.w3.org/2000/svg">
<path d="M163 168C148.167 163.5 116 153.5 106 149.5C104.441 148.876 102.765 148.245 101 147.617M150 207.5C143.734 208.782 137.36 209.253 131 209.051M101 147.617C88.6122 143.214 71.8163 139 60.0001 139C59.1609 139 58.3255 139.042 57.5003 139.126M101 147.617C97.0471 137.367 90.3594 110.051 94.8358 82M220.5 18.5C203 24.5 196 47 211.5 57.5M220.5 18.5C227.716 17 244.035 16.5 251.575 26.5M220.5 18.5C175.14 0.102044 139.237 15.9147 117.517 39M211.5 57.5C193.241 70.3 205 83.5 216 86.5C241.2 90.5 261.5 101.833 268.5 107M211.5 57.5C214.899 55.4817 219.818 52.2821 225.5 48.1729M265 12C262.6 24 228.333 58 211.5 73.5C232.7 78.7 258.333 98 268.5 107M265 12C260.899 17.0552 256.318 21.9264 251.575 26.5M265 12C265 17.3551 262.205 28.8443 252.95 43M268.5 107C258.1 86.2 240.167 71.6667 232.5 67C241.451 58.5996 248.091 50.4323 252.95 43M225.5 48.1729C223.833 46.6152 222 43 226.5 39C231 35 235.667 37.2461 237 39M225.5 48.1729C228.943 45.6829 233.166 42.0974 237 39M237 39C241.96 34.9934 246.606 31.2908 251.575 26.5M252.95 43C259.634 51.5 271.4 66.3 277 85.5M277 85.5C281.083 99.5 290 113.5 318 118.5M277 85.5C282.333 68.8333 295.7 35.4 306.5 35C320 34.5 329 72 318 118.5M318 118.5C332 123 340 128.5 352.5 141.5M352.5 141.5C352.5 132.5 355.5 116.8 367.5 126C369.667 120.5 376.2 112.1 385 122.5C388.5 119 396.6 114.8 401 126C406.5 140 408.5 180.5 389.5 184C386.87 184.484 383.976 184.006 381 182.776M352.5 141.5C353.476 157.77 368.019 177.413 381 182.776M381 182.776C383.833 195.017 384.5 223.5 371 244.5C354.182 270.661 327 305.5 262 301.5M262 301.5C262 207.5 207.5 177 183.5 162C159.5 147 141.5 141.5 117.517 113C98.331 90.2 109.523 54.1667 117.517 39M262 301.5C245.089 300.459 229.803 296.481 216 290.442M131 209.051C116.681 208.595 102.436 204.724 89.6657 199M131 209.051C149.496 239.421 176.749 273.267 216 290.442M117.517 39C105.001 52.3032 97.1936 68.0216 95.0001 81C94.9437 81.3334 94.889 81.6668 94.8358 82M94.8358 82C88.3906 75.3333 76.2001 65.7999 79.0001 81C29.0002 31.5 -4.99972 41 47.0001 98C42.0003 105.5 35.0003 121 57.5003 139.126M57.5003 139.126C46.6383 140.23 37.5297 148.524 44.5001 162C51.0369 174.638 68.2837 189.416 89.6657 199M89.6657 199C89.1106 209.667 92.8003 230.7 112 229.5C116.334 246.667 131.9 280.1 159.5 276.5C167.667 288.794 190.4 308.795 216 290.442M134.5 76C131 68 137.1 43.8 163.5 41C189.9 38.2 188 67 182 76C173.015 87 150.937 102.4 134.5 76ZM161.5 71.5C161.333 68 163.1 61 171.5 61C178.5 61 179.083 66.5 178.5 70C177.706 74.7626 172.5 77.9091 168 77.5C163.5 77.0909 161.619 74 161.5 71.5ZM251.5 189C251.747 182.776 259.6 171.6 270 178C273.667 172.167 283 163.5 291 175.5C295.667 172 305.2 168.2 306 181C307 197 297.574 234.5 276 234.5C254.426 234.5 250.834 205.833 251.5 189ZM11.5003 135C15.0002 139.126 26.5002 135 22.5003 127.5C18.5003 120 7.50018 129 11.5003 135ZM6.50008 78C4 82.5 3.10008 91.6 9.50008 98C17.5001 106 21.5 96 20 91.5C18.2322 86.1967 13.5001 76.5 6.50008 78ZM104.5 270.5C94 265.642 97 243.5 112 263.5C115.75 268.5 107.5 271.888 104.5 270.5Z" stroke="#FF3DB0" stroke-width="8"/>
</svg>
