<svg width="24" height="24" viewBox="0 0 24 24" fill="none" xmlns="http://www.w3.org/2000/svg">
<g clip-path="url(#clip0_201_360)">
<path d="M13.2075 17.5338L13.4816 17.1157L13.2075 17.5338C13.3385 17.6197 13.4648 17.7097 13.5966 17.8037L13.8869 17.3965L13.5966 17.8037C13.6145 17.8164 13.6326 17.8293 13.6509 17.8424C14.1035 18.1661 14.6887 18.5846 15.4284 18.5165C16.1074 18.454 16.517 17.8272 16.6942 16.8803C17.0914 14.7568 17.877 10.1313 18.06 8.20835C18.0812 7.98524 18.0558 7.72613 18.035 7.60423C18.0137 7.47965 17.9538 7.19229 17.6864 6.97534C17.5351 6.85254 17.3645 6.79326 17.2384 6.76312C17.109 6.73223 16.9866 6.72259 16.8976 6.72416C16.582 6.72972 16.2282 6.81877 15.5781 7.05468C14.9193 7.29373 13.9024 7.70497 12.238 8.39727C11.0671 8.88428 8.73301 9.8897 5.23945 11.4118C4.94078 11.531 4.68172 11.6607 4.48456 11.8071C4.29876 11.9451 4.08222 12.1617 4.04305 12.4741C4.01672 12.6842 4.06478 12.884 4.18042 13.0541C4.28637 13.2099 4.43087 13.3143 4.55837 13.3868C4.79212 13.5198 5.106 13.6184 5.38785 13.7069C5.39979 13.7106 5.41167 13.7144 5.42349 13.7181C5.50851 13.7448 5.59403 13.7717 5.68137 13.8001C5.99457 13.9019 6.36535 14.0136 6.71609 14.1015C7.05522 14.1866 7.41556 14.26 7.69049 14.2659C8.22347 14.2774 8.75966 14.0584 9.28392 13.6987C10.3102 13.0059 11.18 12.4211 11.8935 11.9442C11.6619 12.1607 11.4435 12.3638 11.2587 12.5356L11.2157 12.5756C10.9568 12.8162 10.7538 13.005 10.7019 13.0588L11.0621 13.4056L10.7019 13.0588C10.6153 13.1488 10.5261 13.2349 10.433 13.3246L10.4218 13.3354C10.2879 13.4645 10.1369 13.61 10.0144 13.7585C9.88978 13.9096 9.75422 14.1103 9.70541 14.3577C9.59032 14.941 9.995 15.3827 10.5285 15.7343C11.015 16.0549 11.4043 16.32 11.7955 16.5864L11.7963 16.5869C12.2233 16.8778 12.6525 17.17 13.2075 17.5338ZM23.5 12C23.5 18.3513 18.3513 23.5 12 23.5C5.64873 23.5 0.5 18.3513 0.5 12C0.5 5.64873 5.64873 0.5 12 0.5C18.3513 0.5 23.5 5.64873 23.5 12Z" stroke="#FF3DB0"/>
</g>
<defs>
<clipPath id="clip0_201_360">
<rect width="24" height="24" fill="white"/>
</clipPath>
</defs>
</svg>
