<svg width="106" height="106" viewBox="0 0 106 106" fill="none" xmlns="http://www.w3.org/2000/svg">
<path d="M3.01435 0V27.1292M0 32.6555H3.01435M6.02871 32.6555H3.01435M3.01435 32.6555V56.2679M19.5933 56.2679V24.6172M19.5933 24.6172H23.11M19.5933 24.6172H16.0766M19.5933 19.0909V0M36.6746 0V11.0526M33.1579 16.0766H36.6746M40.1914 16.0766H36.6746M36.6746 16.0766V56.2679M71.8421 37.6794H51.7464V1.00478H105V37.6794H84.9043M71.8421 37.6794H84.9043M71.8421 37.6794C71.8421 33.6603 74.756 31.1483 78.3732 31.1483C79.8913 31.1483 81.2854 31.5907 82.3923 32.4013M84.9043 37.6794C84.9043 35.347 83.923 33.5222 82.3923 32.4013M82.3923 32.4013L88.9234 25.1196M101.483 15.5742L96.9617 20.0957M91.4354 9.04306L88.9234 14.067M79.378 6.02871V12.5598M66.8182 9.04306L69.8325 14.067M56.7703 15.5742L61.2919 20.0957M8.03828 71.3397H11.0526M30.1435 71.3397H33.1579M51.7464 71.3397H54.7608M73.3493 71.3397H76.3636M95.4545 71.3397H98.4689M2.00957 84.9043H18.0861M23.11 84.9043H39.1866M45.2153 84.9043H61.2919M67.3206 84.9043H83.3971M88.4211 84.9043H104.498M2.00957 89.9282H18.0861M23.11 89.9282H39.1866M45.2153 89.9282H61.2919M67.3206 89.9282H83.3971M88.4211 89.9282H104.498M2.00957 94.9522H18.0861M23.11 94.9522H39.1866M45.2153 94.9522H61.2919M67.3206 94.9522H83.3971M88.4211 94.9522H104.498M2.00957 99.9761H18.0861M23.11 99.9761H39.1866M45.2153 99.9761H61.2919M67.3206 99.9761H83.3971M88.4211 99.9761H104.498M2.00957 105H18.0861M23.11 105H39.1866M45.2153 105H61.2919M67.3206 105H83.3971M88.4211 105H104.498M51.7464 44.7129V57.7751H64.8086V44.7129H51.7464ZM71.8421 44.7129V57.7751H84.9043V44.7129H71.8421ZM91.9378 44.7129V57.7751H105V44.7129H91.9378ZM3.01435 71.3397C3.01435 67.3206 5.52632 64.8086 9.54545 64.8086C14.067 64.8086 16.0766 68.3254 16.0766 71.3397C16.0766 74.8565 13.5646 77.8708 9.54545 77.8708C5.52632 77.8708 3.01435 75.3589 3.01435 71.3397ZM25.1196 71.3397C25.1196 67.3206 27.6316 64.8086 31.6507 64.8086C36.1722 64.8086 38.1818 68.3254 38.1818 71.3397C38.1818 74.8565 35.6699 77.8708 31.6507 77.8708C27.6316 77.8708 25.1196 75.3589 25.1196 71.3397ZM46.7225 71.3397C46.7225 67.3206 49.2345 64.8086 53.2536 64.8086C57.7751 64.8086 59.7847 68.3254 59.7847 71.3397C59.7847 74.8565 57.2727 77.8708 53.2536 77.8708C49.2345 77.8708 46.7225 75.3589 46.7225 71.3397ZM68.3254 71.3397C68.3254 67.3206 70.8373 64.8086 74.8565 64.8086C79.378 64.8086 81.3876 68.3254 81.3876 71.3397C81.3876 74.8565 78.8756 77.8708 74.8565 77.8708C70.8373 77.8708 68.3254 75.3589 68.3254 71.3397ZM90.4306 71.3397C90.4306 67.3206 92.9426 64.8086 96.9617 64.8086C101.483 64.8086 103.493 68.3254 103.493 71.3397C103.493 74.8565 100.981 77.8708 96.9617 77.8708C92.9426 77.8708 90.4306 75.3589 90.4306 71.3397Z" stroke="white"/>
</svg>
