<svg width="107" height="107" viewBox="0 0 107 107" fill="none" xmlns="http://www.w3.org/2000/svg">
<path d="M49 105V106H106V105H49Z" fill="white"/>
<path d="M20.0001 77.5V28M83.5001 28V77.5M19.0001 89H34.9921M19.0001 89L32.687 97.5M19.0001 89L17.238 86M19.0001 89L17.8001 91M10.0001 104C24.0001 111.5 40.0001 97.5 33.5 81.5M10.0001 104L14.8001 96M10.0001 104C6.70332 101.881 4.48787 99.0682 3.22316 96M10.4835 74.5L14.3013 81M16.5001 73C10.7268 73.1924 6.36077 76.4958 3.97223 81M14.3013 81H3.97223M14.3013 81L17.238 86M3.97223 81C3.1501 82.5504 2.56224 84.243 2.23192 86M2.23192 86H17.238M2.23192 86C1.92511 87.6319 1.84048 89.3194 1.99666 91M17.8001 91H1.99666M17.8001 91L14.8001 96M1.99666 91C2.15417 92.695 2.55663 94.383 3.22316 96M14.8001 96H3.22316M58.5 100.5L62 96L65 100.5L70 92L73.5 96L78.5 85L83.5001 97L90 80L95 90.5L100 70L105 102M53.5 23C53.8001 21.5993 54.1893 20.2654 54.6584 19M97 11C98.5576 12.6113 99.8025 14.2869 100.771 16M97 11L86.5 21.1706M97 11C95.5858 9.53708 94.0766 8.2739 92.5 7.20491M87.5 51.5C89.5761 50.808 91.789 49.4129 93.8875 47.5M54.6584 19L68.5 23.5C69.644 20.7217 72.3906 18.7447 75.5 17.9356M54.6584 19C57.7753 10.5938 64.4256 5.21084 72 3.37319M88.5 31C88.8605 27.9356 88.5549 25.4561 87.7912 23.5M75.5 17.9356C77.2919 17.4693 79.2043 17.3909 81 17.7706M75.5 17.9356L74.9146 15.5M72 3.37319C74.5933 2.74402 77.2949 2.53042 80.0001 2.75336M72 3.37319L73.3524 9M100.771 16L87.7912 23.5M100.771 16C107.286 27.5228 101.3 40.7426 93.8875 47.5M87.7912 23.5C87.4473 22.6193 87.0106 21.8447 86.5 21.1706M86.5 21.1706C85.0946 19.3152 83.1294 18.2208 81 17.7706M92.5 7.20491L81 17.7706M92.5 7.20491C90.5828 5.90495 88.5661 4.89215 86.5 4.15649M86.5 4.15649L74.9146 15.5M86.5 4.15649C84.3677 3.39728 82.1827 2.93323 80.0001 2.75336M74.9146 15.5L73.3524 9M80.0001 2.75336L73.3524 9M87.7912 40.5L93.8875 47.5M24.0001 32H26.0001V30H24.0001V32ZM29.0001 30V32H31.0001V30H29.0001ZM34.0001 30V32H36.0001V30H34.0001ZM24.0001 41V51H40.0001V41H24.0001ZM26 43V49H38V43H26ZM44.0001 41V51H60.0001V41H44.0001ZM46 43V49H58V43H46ZM64.0001 41V51H80.0001V41H64.0001ZM66 43V49H78V43H66ZM24.0001 53V55H40.0001V53H24.0001ZM44.0001 53L44 55H60L60.0001 53H44.0001ZM24.0001 58V60H40.0001V58H24.0001ZM44.0001 58V60H60.0001V58H44.0001ZM64.0001 53H80.0001L80 55H64L64.0001 53ZM64.0001 58V60H80.0001V58H64.0001ZM64.0001 63V65H80.0001V63H64.0001ZM44.0001 63V65H60.0001V63H44.0001ZM24.0001 63V65H40.0001V63H24.0001ZM24.0001 68V70H40.0001V68H24.0001ZM44.0001 68V70H60.0001V68H44.0001ZM64.0001 68V70H80.0001V68H64.0001ZM64.0001 73V75H80.0001V73H64.0001ZM44.0001 73V75H60.0001V73H44.0001ZM24.0001 73L24 75H40L40.0001 73H24.0001ZM24.0001 35V37H80.0001V35H24.0001ZM41.0001 32H80.0001V30H41.0001V32ZM49 105V106H106V105H49ZM16 50H1V52H16V50ZM14 47H16V22H21V25H23V20H14V47ZM1 47V33H10V47H8V35H3V47H1ZM27 24V11H36.0001V24H34.0001V13H29.0001V24H27ZM40 24V1H50V24H48V3H42V24H40Z" stroke="white"/>
</svg>
