<svg width="150" height="107" viewBox="0 0 150 107" fill="none" xmlns="http://www.w3.org/2000/svg">
<path d="M18.2603 38.3973V5.31507C18.2603 2.43836 19.6986 1 22.5753 1C27.1781 1 97.6096 1.00009 129.014 1.00009C131.89 1.00009 133.329 2.43844 133.329 5.31507C133.329 11.6438 133.329 40.5548 133.329 52.7808M18.2603 38.3973H5.31507C2.43836 38.3973 1 39.8356 1 42.7123C1 42.9916 1 44.9183 1 45.589M18.2603 38.3973C19.4454 38.3973 20.9319 38.3973 22.5753 38.3973M133.329 52.7808H144.836C147.712 52.7808 149.151 54.2192 149.151 57.0959C149.151 61.7916 149.151 84.052 149.151 96.6507M133.329 52.7808C132.595 52.7808 131.036 52.7808 129.014 52.7808M44.1507 79.3904C44.1507 86.5369 44.1507 92.8309 44.1507 96.6507M44.1507 79.3904C44.1507 74.8041 44.1507 69.8667 44.1507 65.0068M44.1507 79.3904H71.4795M120.384 79.3904C120.384 86.1698 120.384 92.6355 120.384 96.6507M120.384 79.3904C120.384 74.4908 120.384 69.4273 120.384 65.0068M120.384 79.3904H81.5479M1 96.6507C1 97.9172 1 100.559 1 101.685C1 104.562 2.43836 106 5.31507 106C9.34247 106 30.4863 106 39.8356 106C42.7123 106 44.1507 104.562 44.1507 101.685C44.1507 101.162 44.1507 98.4666 44.1507 96.6507M1 96.6507H44.1507M1 96.6507C1 80.0756 1 52.6685 1 45.589M44.1507 45.589C44.1507 45.097 44.1507 43.1789 44.1507 42.7123C44.1507 39.8356 42.7123 38.3973 39.8356 38.3973C36.6739 38.3973 28.5776 38.3973 22.5753 38.3973M44.1507 45.589H1M44.1507 45.589C44.1507 49.3385 44.1507 55.9569 44.1507 60.6919M120.384 96.6507C120.384 98.3303 120.384 101.019 120.384 101.685C120.384 104.562 121.822 106 124.699 106C129.733 106 141.384 106 144.836 106C147.712 106 149.151 104.562 149.151 101.685C149.151 100.591 149.151 97.9449 149.151 96.6507M120.384 96.6507H149.151M120.384 65.0068H44.1507M120.384 65.0068C120.384 63.1356 120.384 62.6536 120.384 60.6919M44.1507 65.0068C44.1507 62.8206 44.1507 62.8077 44.1507 60.6919M71.4795 79.3904V84.4247M71.4795 79.3904H81.5479M71.4795 84.4247H81.5479M71.4795 84.4247H62.8493C61.411 84.4247 61.411 84.4247 61.411 85.8631C61.411 87.0138 61.411 87.7809 61.411 88.7398C61.411 90.1782 61.411 90.1782 62.8493 90.1782C63.4247 90.1782 81.3082 90.1782 90.1781 90.1782C91.6164 90.1782 91.6164 90.1782 91.6164 88.7398C91.6164 88.1645 91.6164 87.3015 91.6164 85.8631C91.6164 84.4247 91.6164 84.4247 90.1781 84.4247C89.6027 84.4247 84.1849 84.4247 81.5479 84.4247M81.5479 79.3904V84.4247M22.5753 38.3973V18.9795C22.5753 17.5412 23.2945 16.822 24.7329 16.822H95.2123C96.6507 16.822 97.3699 17.5412 97.3699 18.9795V58.5343C97.3699 59.9727 96.6507 60.6919 95.2123 60.6919H44.1507M129.014 52.7808C127.731 52.7808 126.262 52.7808 124.699 52.7808C121.822 52.7808 120.384 54.2192 120.384 57.0959C120.384 57.5035 120.384 60.1507 120.384 60.6919M129.014 52.7808C129.014 42.2329 129.014 20.7056 129.014 18.9795C129.014 17.5412 128.295 16.822 126.856 16.822H103.842C102.404 16.822 101.685 17.5412 101.685 18.9795C101.685 20.7056 101.685 46.7878 101.685 58.5343C101.685 59.9727 102.404 60.6919 103.842 60.6919C104.993 60.6919 115.349 60.6919 120.384 60.6919M5.31507 96.6507V89.4591C5.31507 88.0207 6.03425 87.3015 7.4726 87.3015H37.6781C39.1164 87.3015 39.8356 88.0207 39.8356 89.4591V96.6507M76.5137 68.6027C74.3562 68.5592 73.637 70.0411 73.637 71.4795C73.637 72.9178 74.3562 74.3562 76.5137 74.3562C78.6712 74.3562 79.3904 72.9178 79.3904 71.4795C79.3904 70.0411 78.6712 68.6463 76.5137 68.6027ZM24.7329 5.31507C23.2945 5.31516 22.5753 6.03433 22.5753 7.47269C22.5753 9.19872 22.5753 10.1097 22.5753 10.3494C22.5753 11.7878 23.2945 12.5069 24.7329 12.5069C25.8599 12.5069 91.9302 12.5069 126.856 12.5069C128.295 12.5069 129.014 11.7878 129.014 10.3494C129.014 9.86995 129.014 8.62338 129.014 7.47269C129.014 6.03433 128.295 5.31507 126.856 5.31507H24.7329ZM7.4726 49.904C6.03425 49.9041 5.31507 50.6233 5.31507 52.0616V53.5001C5.31507 54.9384 6.03425 55.6576 7.4726 55.6576H37.6781C39.1164 55.6576 39.8356 54.9384 39.8356 53.5001V52.0616C39.8356 50.6233 39.1164 49.904 37.6781 49.904H7.4726ZM7.4726 59.9727C6.03425 59.9728 5.31507 60.692 5.31507 62.1303V80.8289C5.31507 82.2672 6.03425 82.9864 7.4726 82.9864H37.6781C39.1164 82.9864 39.8356 82.2672 39.8356 80.8289V62.1303C39.8356 60.692 39.1164 59.9727 37.6781 59.9727H7.4726ZM125.418 55.6576C123.979 55.6577 123.26 56.3769 123.26 57.8152C123.26 59.2536 123.979 59.9728 125.418 59.9728H144.116C145.555 59.9728 146.274 59.2536 146.274 57.8152C146.274 56.3769 145.555 55.6576 144.116 55.6576H125.418ZM125.418 62.8494C123.979 62.8495 123.26 63.5687 123.26 65.007V91.6165C123.26 93.0549 123.979 93.7741 125.418 93.7741H144.116C145.555 93.7741 146.274 93.0549 146.274 91.6165V65.007C146.274 63.5687 145.555 62.8494 144.116 62.8494H125.418Z" stroke="white"/>
</svg>
