<svg width="33" height="28" viewBox="0 0 33 28" fill="none" xmlns="http://www.w3.org/2000/svg">
<g filter="url(#filter0_d_289_354)">
<path d="M7.60175 5.99781C7.55731 4.72 8.55275 3.54175 9.89844 3.54175H23.6872C25.0329 3.54175 26.0283 4.72 25.9839 5.99781C25.9411 7.22519 25.9966 8.81519 26.3967 10.1116C26.7982 11.4121 27.4751 12.2339 28.5837 12.3396V13.5372C27.4751 13.6429 26.7982 14.4647 26.3967 15.7652C25.9966 17.0616 25.9411 18.6516 25.9839 19.879C26.0283 21.1568 25.0329 22.3349 23.6872 22.3349H9.89844C8.55275 22.3349 7.55731 21.1566 7.60175 19.879C7.6445 18.6516 7.589 17.0616 7.18869 15.7652C6.78744 14.4649 6.10869 13.6429 5 13.5372V12.3396C6.10869 12.2341 6.78744 11.4121 7.18869 10.1116C7.589 8.81519 7.64431 7.22519 7.60175 5.99781Z" fill="url(#paint0_linear_289_354)"/>
<path d="M17.3751 18.0022C19.5537 18.0022 20.8665 16.9356 20.8665 15.1762C20.8665 13.8462 19.9298 12.8834 18.5389 12.731V12.6756C19.5608 12.5094 20.3627 11.5604 20.3627 10.5006C20.3627 8.9906 19.1705 8.00696 17.3539 8.00696H13.2664V18.0022H17.3751ZM14.856 9.27456H16.9707C18.1203 9.27456 18.7731 9.78713 18.7731 10.7153C18.7731 11.7059 18.0138 12.26 16.6372 12.26H14.856V9.27456ZM14.856 16.7346V13.4444H16.9564C18.4609 13.4444 19.2415 13.9986 19.2415 15.0792C19.2415 16.1597 18.4822 16.7346 17.0487 16.7346H14.856Z" fill="url(#paint1_linear_289_354)"/>
<path d="M7.60175 5.99781C7.55731 4.72 8.55275 3.54175 9.89844 3.54175H23.6872C25.0329 3.54175 26.0283 4.72 25.9839 5.99781C25.9411 7.22519 25.9966 8.81519 26.3967 10.1116C26.7982 11.4121 27.4751 12.2339 28.5837 12.3396V13.5372C27.4751 13.6429 26.7982 14.4647 26.3967 15.7652C25.9966 17.0616 25.9411 18.6516 25.9839 19.879C26.0283 21.1568 25.0329 22.3349 23.6872 22.3349H9.89844C8.55275 22.3349 7.55731 21.1566 7.60175 19.879C7.6445 18.6516 7.589 17.0616 7.18869 15.7652C6.78744 14.4649 6.10869 13.6429 5 13.5372V12.3396C6.10869 12.2341 6.78744 11.4121 7.18869 10.1116C7.589 8.81519 7.64431 7.22519 7.60175 5.99781Z" stroke="white" stroke-width="0.24566"/>
<path d="M17.3751 18.0022C19.5537 18.0022 20.8665 16.9356 20.8665 15.1762C20.8665 13.8462 19.9298 12.8834 18.5389 12.731V12.6756C19.5608 12.5094 20.3627 11.5604 20.3627 10.5006C20.3627 8.9906 19.1705 8.00696 17.3539 8.00696H13.2664V18.0022H17.3751ZM14.856 9.27456H16.9707C18.1203 9.27456 18.7731 9.78713 18.7731 10.7153C18.7731 11.7059 18.0138 12.26 16.6372 12.26H14.856V9.27456ZM14.856 16.7346V13.4444H16.9564C18.4609 13.4444 19.2415 13.9986 19.2415 15.0792C19.2415 16.1597 18.4822 16.7346 17.0487 16.7346H14.856Z" stroke="white" stroke-width="0.24566"/>
</g>
<defs>
<filter id="filter0_d_289_354" x="0.946637" y="0.471025" width="31.6905" height="26.8999" filterUnits="userSpaceOnUse" color-interpolation-filters="sRGB">
<feFlood flood-opacity="0" result="BackgroundImageFix"/>
<feColorMatrix in="SourceAlpha" type="matrix" values="0 0 0 0 0 0 0 0 0 0 0 0 0 0 0 0 0 0 127 0" result="hardAlpha"/>
<feOffset dy="0.98264"/>
<feGaussianBlur stdDeviation="1.96528"/>
<feColorMatrix type="matrix" values="0 0 0 0 0 0 0 0 0 0 0 0 0 0 0 0 0 0 0.15 0"/>
<feBlend mode="normal" in2="BackgroundImageFix" result="effect1_dropShadow_289_354"/>
<feBlend mode="normal" in="SourceGraphic" in2="effect1_dropShadow_289_354" result="shape"/>
</filter>
<linearGradient id="paint0_linear_289_354" x1="8.50448" y1="4.03912" x2="29.1123" y2="20.3979" gradientUnits="userSpaceOnUse">
<stop stop-color="#9013FE"/>
<stop offset="1" stop-color="#6610F2"/>
</linearGradient>
<linearGradient id="paint1_linear_289_354" x1="13.9855" y1="8.66483" x2="18.5917" y2="16.4552" gradientUnits="userSpaceOnUse">
<stop stop-color="white"/>
<stop offset="1" stop-color="#F1E5FC"/>
</linearGradient>
</defs>
</svg>
