<svg width="19" height="25" viewBox="0 0 19 25" fill="none" xmlns="http://www.w3.org/2000/svg">
<path d="M8.46019 0.291748H12.3846V18.4567C10.3714 18.8392 8.89331 18.9921 7.28813 18.9921C2.49731 18.9919 0 16.8262 0 12.6724C0 8.6715 2.65031 6.07237 6.75281 6.07237C7.38994 6.07237 7.87406 6.12337 8.46019 6.27619V0.291748ZM8.46019 9.43519C8.00156 9.28237 7.61925 9.23156 7.13513 9.23156C5.14762 9.23156 4.00069 10.4546 4.00069 12.5951C4.00069 14.6848 5.09662 15.8314 7.10981 15.8314C7.54275 15.8314 7.89956 15.8059 8.46019 15.7297V9.43519Z" fill="white"/>
<path d="M18.6272 6.35194V15.4492C18.6272 18.5837 18.3977 20.0871 17.7097 21.3866C17.0726 22.6356 16.2317 23.4253 14.499 24.2917L10.8549 22.5591C12.5878 21.7434 13.4286 21.0304 13.9637 19.9341C14.5243 18.813 14.703 17.5134 14.703 14.0987V6.35194H18.6272ZM14.7028 0.312561H18.6272V4.33894H14.7028V0.312561Z" fill="white"/>
</svg>
