<svg width="17" height="25" viewBox="0 0 17 25" fill="none" xmlns="http://www.w3.org/2000/svg">
<path d="M4.46875 24.5225C6.7 24.5225 8.5 22.7225 8.5 20.4912V16.46H4.46875C2.2375 16.46 0.4375 18.26 0.4375 20.4912C0.4375 22.7225 2.2375 24.5225 4.46875 24.5225Z" fill="#0ACF83"/>
<path d="M0.4375 12.4287C0.4375 10.1975 2.2375 8.39746 4.46875 8.39746H8.5V16.46H4.46875C2.2375 16.46 0.4375 14.66 0.4375 12.4287Z" fill="#A259FF"/>
<path d="M0.4375 4.36621C0.4375 2.13496 2.2375 0.334961 4.46875 0.334961H8.5V8.39746H4.46875C2.2375 8.39746 0.4375 6.59746 0.4375 4.36621Z" fill="#F24E1E"/>
<path d="M8.5 0.334961H12.5312C14.7625 0.334961 16.5625 2.13496 16.5625 4.36621C16.5625 6.59746 14.7625 8.39746 12.5312 8.39746H8.5V0.334961Z" fill="#FF7262"/>
<path d="M16.5625 12.4287C16.5625 14.66 14.7625 16.46 12.5312 16.46C10.3 16.46 8.5 14.66 8.5 12.4287C8.5 10.1975 10.3 8.39746 12.5312 8.39746C14.7625 8.39746 16.5625 10.1975 16.5625 12.4287Z" fill="#1ABCFE"/>
</svg>
