<svg width="18" height="24" viewBox="0 0 18 24" fill="none" xmlns="http://www.w3.org/2000/svg">
<path fill-rule="evenodd" clip-rule="evenodd" d="M12.8803 14.667C13.3397 14.3529 13.9772 14.0811 13.9772 14.0811C13.9772 14.0811 12.1632 14.4092 10.3585 14.5592C8.15072 14.742 5.77888 14.7795 4.58827 14.6201C1.77112 14.2451 6.13512 13.2092 6.13512 13.2092C6.13512 13.2092 4.44296 13.0967 2.35705 14.0998C-0.103857 15.2904 8.45072 15.8342 12.8803 14.667ZM13.9631 17.5826C13.9375 17.6272 13.906 17.6682 13.8694 17.7045C19.8834 16.1248 17.6709 12.1311 14.7975 13.1436C14.6423 13.2006 14.5082 13.3036 14.4131 13.4389C14.5809 13.3782 14.7534 13.3311 14.9288 13.2983C16.3819 12.9936 18.4678 15.2435 13.9631 17.5826ZM16.1737 20.5029C16.1737 20.5029 16.8534 21.0607 15.4284 21.4966C12.7144 22.3169 4.14109 22.5653 1.75987 21.5294C0.902067 21.1591 2.50986 20.6388 3.0161 20.531C3.54109 20.4185 3.84578 20.4372 3.84578 20.4372C2.89423 19.7669 -2.30883 21.7544 1.20206 22.3216C10.7757 23.8778 18.6581 21.6232 16.1737 20.5029ZM5.6945 18.5623C2.00549 19.5935 7.93979 21.7216 12.6366 19.7107C12.1785 19.5327 11.7363 19.3163 11.3147 19.0638C9.21946 19.4622 8.24916 19.4904 6.34606 19.2747C4.77577 19.0966 5.6945 18.5623 5.6945 18.5623ZM3.18672 23.2872L3.187 23.2872C3.18681 23.2871 3.18672 23.2872 3.18672 23.2872ZM3.187 23.2872C3.18753 23.2875 3.18884 23.2884 3.19103 23.2898C3.24732 23.3275 3.88094 23.751 6.58043 23.9247C10.9022 24.2012 17.5397 23.77 17.6943 21.7263C17.6943 21.7263 17.3943 22.4997 14.1225 23.1184C10.4336 23.8122 5.88231 23.7325 3.187 23.2872ZM12.0788 16.5467C9.30383 17.081 7.69604 17.067 5.66638 16.856C4.09609 16.692 5.12264 15.9326 5.12264 15.9326C1.05394 17.2826 7.38198 18.8107 13.0678 17.1466C12.7004 17.0169 12.3636 16.8126 12.0788 16.5467Z" fill="white"/>
<path d="M8.87727 13.1623C7.98666 11.1608 4.98201 9.403 8.87727 6.32804C13.7363 2.49372 11.2444 0 11.2444 0C12.2522 3.96089 7.70073 5.16087 6.05544 7.62177C4.93514 9.30457 6.60387 11.1092 8.87727 13.1623Z" fill="#EA2D2E"/>
<path d="M9.96007 11.4748C11.1179 12.8061 9.65539 14.0061 9.65539 14.0061C9.65539 14.0061 12.5944 12.4873 11.2444 10.5889C11.1905 10.5132 11.1372 10.4391 11.0848 10.3663C9.91228 8.73779 9.24153 7.80618 14.2491 4.90306C14.2491 4.90306 14.2475 4.90349 14.2442 4.90435L14.2441 4.90438C14.0162 4.96359 6.09402 7.02219 9.96007 11.4748Z" fill="#EA2D2E"/>
</svg>
