<svg width="24" height="24" viewBox="0 0 24 24" fill="none" xmlns="http://www.w3.org/2000/svg">
<path d="M0 0V23.4375H23.4375V0H0ZM12.3973 19.9712C12.0514 20.6741 11.391 21.1359 10.6258 21.3589C9.45 21.6289 8.32537 21.4749 7.48875 20.9728C6.92887 20.6293 6.49163 20.1006 6.19481 19.4914L7.97981 18.3983C7.99537 18.4048 8.04225 18.4896 8.10488 18.5991C8.3325 18.9804 8.52881 19.2504 8.91469 19.44C9.29381 19.5694 10.1261 19.6521 10.4475 18.9849C10.6438 18.6456 10.5814 17.5547 10.5814 16.3478C10.5812 14.4512 10.59 12.5625 10.59 10.6875H12.7854C12.7854 12.75 12.7967 14.7034 12.7854 16.716C12.7901 17.9498 12.8972 19.0496 12.3973 19.9712ZM21.5049 19.3509C20.7418 21.9613 16.4871 22.0461 14.7868 20.3214C14.4276 19.9155 14.2024 19.7034 13.9881 19.2349C14.8916 18.7151 14.8916 18.7151 15.7708 18.2064C16.2484 18.9405 16.6899 19.3442 17.4844 19.5094C18.5621 19.641 19.6464 19.2707 19.4032 18.126C19.1533 17.1911 17.1964 16.9637 15.8646 15.9639C14.5125 15.0559 14.1956 12.8494 15.3068 11.5886C15.6771 11.1223 16.3086 10.7743 16.9712 10.6071L17.6627 10.5176C18.9904 10.4908 19.8202 10.8414 20.4294 11.5217C20.5989 11.6934 20.7373 11.8787 20.9961 12.2801C20.2888 12.7309 20.2911 12.7266 19.278 13.3824C19.0616 12.9163 18.7026 12.6238 18.3231 12.4967C17.7339 12.3182 16.9911 12.5122 16.8369 13.1348C16.7835 13.3266 16.7946 13.5051 16.8795 13.8219C17.1182 14.3663 17.9192 14.6029 18.6377 14.9331C20.706 15.7719 21.4044 16.6714 21.5762 17.742C21.7416 18.6637 21.5363 19.2617 21.5049 19.3509Z" fill="#F0DB4F"/>
</svg>
