<svg width="24" height="24" viewBox="0 0 24 24" fill="none" xmlns="http://www.w3.org/2000/svg">
<path d="M8.78726 1.0081C5.11464 1.27986 1.9925 1.52978 1.84571 1.55904C1.43413 1.63244 1.05972 1.91163 0.883657 2.27907L0.729431 2.60239L0.766129 18.0138L1.00118 18.4914C1.13358 18.7557 2.02967 19.9899 3.00658 21.2605C4.93859 23.7652 5.07795 23.905 5.81238 23.9784C6.0256 24.0003 7.62685 23.9269 9.3605 23.8242C11.1016 23.7141 13.8925 23.545 15.5676 23.4498C22.7219 23.0155 22.3545 23.0522 22.7656 22.6996C23.2798 22.2736 23.2431 22.9713 23.265 13.6058C23.2798 5.66507 23.2724 5.14386 23.1549 4.90137C23.0155 4.62962 22.7656 4.4387 19.5041 2.14668C17.3226 0.618823 17.1684 0.537994 16.191 0.523129C15.7873 0.508729 12.4524 0.728918 8.78726 1.0081ZM17.0434 2.01429C17.3519 2.15365 19.6072 3.72564 19.9375 4.02712C20.0258 4.11538 20.055 4.18878 20.0109 4.23291C19.9082 4.32117 5.95127 5.15129 5.54759 5.0923C5.3641 5.06303 5.09235 4.95294 4.93812 4.84981C4.29892 4.4164 2.71253 3.11616 2.71253 3.02094C2.71253 2.77102 2.66097 2.77102 8.88295 2.3232C10.0731 2.24237 12.0269 2.09558 13.2171 1.99989C15.7948 1.7941 16.5664 1.80153 17.0434 2.01429ZM21.4802 6.03252C21.5829 6.13518 21.6711 6.33354 21.7004 6.52446C21.7222 6.70098 21.7371 9.99175 21.7222 13.826C21.7004 20.4076 21.693 20.8191 21.568 21.0101C21.4946 21.1276 21.3478 21.2526 21.2373 21.2893C20.9293 21.4142 6.30432 22.2443 6.0033 22.1561C5.86394 22.1194 5.67255 22.0018 5.56989 21.8992L5.39337 21.7083L5.37153 14.6125C5.35667 9.6322 5.37153 7.42845 5.43053 7.23009C5.47466 7.0833 5.58475 6.90677 5.68045 6.84824C5.81284 6.75998 6.67966 6.68658 9.66198 6.51052C11.7556 6.393 14.9948 6.19464 16.8535 6.08455C21.2744 5.81233 21.26 5.81233 21.4802 6.03252Z" fill="white"/>
<path d="M17.5503 8.46389C16.7568 8.51546 16.0517 8.58886 15.9708 8.63299C15.7283 8.75795 15.5816 8.96374 15.5523 9.19879C15.5305 9.44128 15.6039 9.47054 16.3968 9.56624L16.742 9.61037V12.7469C16.742 14.6125 16.7127 15.8468 16.676 15.8101C16.6393 15.7659 15.5964 14.1795 14.3547 12.2842C13.1135 10.382 12.085 8.81694 12.0701 8.80254C12.0553 8.78768 11.2474 8.83181 10.278 8.89824C9.08781 8.97907 8.43421 9.05246 8.30182 9.12586C8.0886 9.23595 7.85354 9.62523 7.85354 9.88259C7.85354 10.0368 8.13273 10.1176 8.72037 10.1176H9.02882V19.138L8.52944 19.2922C8.14016 19.4097 8.00777 19.4831 7.94181 19.6299C7.82428 19.8799 7.83171 20.1075 7.94924 20.1075C7.99337 20.1075 8.82349 20.0559 9.77811 19.9974C11.666 19.8873 11.8787 19.8357 12.0771 19.4464C12.1361 19.3289 12.1872 19.2039 12.1872 19.1673C12.1872 19.138 11.9303 19.0497 11.6214 18.9763C11.3055 18.9029 10.9896 18.8295 10.9237 18.8147C10.7987 18.778 10.7913 18.5503 10.7913 15.3915V12.005L13.0243 15.509C15.3674 19.1817 15.6615 19.6007 16.0215 19.7842C16.4697 20.0192 17.6083 19.8576 18.1811 19.4831L18.3576 19.373L18.3725 14.3635L18.3943 9.34651L18.7836 9.27312C19.2463 9.18485 19.4595 8.9721 19.4595 8.60465C19.4595 8.36959 19.4446 8.35473 19.2244 8.36216C19.093 8.3682 18.3362 8.41233 17.5503 8.46389Z" fill="white"/>
</svg>
