<svg width="20" height="22" viewBox="0 0 20 22" fill="none" xmlns="http://www.w3.org/2000/svg">
<path d="M9.48351 0.437649C8.69188 0.441399 7.93626 0.508712 7.27101 0.626462C5.31163 0.972587 4.95613 1.69709 4.95613 3.0334V4.79796H9.58607V5.38615H3.21838C1.87288 5.38615 0.694632 6.19484 0.326007 7.73384C-0.0992433 9.49727 -0.117993 10.5979 0.326007 12.4393C0.655069 13.8102 1.44107 14.7866 2.78676 14.7866H4.37882V12.6713C4.37882 11.143 5.70088 9.79502 7.27119 9.79502H11.8959C13.1833 9.79502 14.2108 8.7349 14.2108 7.44227V3.03359C14.2108 1.77865 13.1521 0.836087 11.8959 0.626649C11.1001 0.494274 10.2749 0.434087 9.48351 0.437649ZM6.97963 1.85684C7.45776 1.85684 7.84851 2.25377 7.84851 2.74202C7.84851 3.22821 7.45794 3.6214 6.97963 3.6214C6.49963 3.6214 6.11094 3.22821 6.11094 2.74202C6.11076 2.25377 6.49963 1.85684 6.97963 1.85684Z" fill="url(#paint0_linear_289_327)"/>
<path d="M14.7881 5.38615V7.44227C14.7881 9.03603 13.4366 10.3776 11.8957 10.3776H7.27101C6.00426 10.3776 4.95613 11.4619 4.95613 12.7305V17.1396C4.95613 18.3941 6.04701 19.1323 7.27101 19.4922C8.73651 19.9228 10.142 20.0008 11.8957 19.4922C13.0612 19.1545 14.2106 18.4753 14.2106 17.1396V15.3748H9.58607V14.7865H16.5258C17.8713 14.7865 18.3731 13.848 18.8411 12.4392C19.3244 10.9888 19.3036 9.59402 18.8411 7.73365C18.5084 6.39396 17.8734 5.38596 16.5258 5.38596L14.7881 5.38615ZM12.1869 16.5512C12.6671 16.5512 13.0558 16.9444 13.0558 17.431C13.0558 17.9188 12.6669 18.3158 12.1869 18.3158C11.7088 18.3158 11.3182 17.9188 11.3182 17.431C11.3182 16.9444 11.7088 16.5512 12.1869 16.5512Z" fill="url(#paint1_linear_289_327)"/>
<path d="M15.8431 20.5656C15.8431 21.2299 13.0651 21.7686 9.63857 21.7686C6.21182 21.7686 3.43382 21.2299 3.43382 20.5656C3.43382 19.9011 6.21163 19.3624 9.63857 19.3624C13.0651 19.3624 15.8431 19.9009 15.8431 20.5656Z" fill="url(#paint2_radial_289_327)"/>
<defs>
<linearGradient id="paint0_linear_289_327" x1="-0.626961" y1="1.25793" x2="14.9407" y2="13.3213" gradientUnits="userSpaceOnUse">
<stop stop-color="#5A9FD4"/>
<stop offset="1" stop-color="#306998"/>
</linearGradient>
<linearGradient id="paint1_linear_289_327" x1="12.505" y1="15.738" x2="6.7083" y2="8.31006" gradientUnits="userSpaceOnUse">
<stop stop-color="#FFD43B"/>
<stop offset="1" stop-color="#FFE873"/>
</linearGradient>
<radialGradient id="paint2_radial_289_327" cx="0" cy="0" r="1" gradientUnits="userSpaceOnUse" gradientTransform="translate(9.61351 20.531) rotate(-90) scale(1.20343 5.2901)">
<stop stop-color="#B8B8B8" stop-opacity="0.498"/>
<stop offset="1" stop-color="#7F7F7F" stop-opacity="0"/>
</radialGradient>
</defs>
</svg>
