<svg width="24" height="25" viewBox="0 0 24 25" fill="none" xmlns="http://www.w3.org/2000/svg">
<path d="M5.11023 16.0001C5.11023 17.3745 3.98935 18.497 2.61479 18.497C1.24042 18.497 0.118042 17.3745 0.118042 16.0001C0.118042 14.6257 1.2406 13.5031 2.61498 13.5031H5.11042L5.11023 16.0001ZM6.36817 16.0001C6.36817 14.6257 7.49073 13.5031 8.8651 13.5031C10.2395 13.5031 11.362 14.6255 11.362 16.0001V22.2504C11.362 23.6248 10.2397 24.7473 8.8651 24.7473C7.49073 24.7473 6.36817 23.6248 6.36817 22.2504V16.0001Z" fill="#DE1C59"/>
<path d="M8.8651 5.97559C7.49073 5.97559 6.36817 4.85471 6.36817 3.48015C6.36817 2.10577 7.49073 0.983398 8.8651 0.983398C10.2395 0.983398 11.362 2.10596 11.362 3.48034V5.97577L8.8651 5.97559ZM8.8651 7.23352C10.2395 7.23352 11.362 8.35609 11.362 9.73046C11.362 11.1048 10.2397 12.2274 8.8651 12.2274H2.61479C1.24042 12.2274 0.118042 11.105 0.118042 9.73046C0.118042 8.35609 1.2406 7.23352 2.61498 7.23352H8.8651Z" fill="#35C5F0"/>
<path d="M18.8896 9.73046C18.8896 8.35609 20.0105 7.23352 21.385 7.23352C22.7594 7.23352 23.882 8.35609 23.882 9.73046C23.882 11.1048 22.7594 12.2274 21.385 12.2274H18.8896V9.73046ZM17.6317 9.73046C17.6317 11.1048 16.5091 12.2274 15.1347 12.2274C13.7604 12.2274 12.6378 11.105 12.6378 9.73046V3.48015C12.6378 2.10577 13.7602 0.983398 15.1347 0.983398C16.5091 0.983398 17.6317 2.10596 17.6317 3.48034V9.73046Z" fill="#2EB57D"/>
<path d="M15.1347 19.755C16.5091 19.755 17.6317 20.8758 17.6317 22.2504C17.6317 23.6248 16.5091 24.7473 15.1347 24.7473C13.7604 24.7473 12.6378 23.6248 12.6378 22.2504V19.755H15.1347ZM15.1347 18.497C13.7604 18.497 12.6378 17.3745 12.6378 16.0001C12.6378 14.6257 13.7602 13.5031 15.1347 13.5031H21.385C22.7594 13.5031 23.882 14.6255 23.882 16.0001C23.882 17.3745 22.7594 18.497 21.385 18.497H15.1347Z" fill="#EBB02E"/>
</svg>
