<svg width="70" height="107" viewBox="0 0 70 107" fill="none" xmlns="http://www.w3.org/2000/svg">
<path d="M1 93.8846C1 96.1976 1 98.3946 1 100.447C1 104.486 2.51442 106 6.55288 106H63.0913C67.1298 106 68.6442 104.486 68.6442 100.447C68.6442 99.8787 68.6442 97.531 68.6442 93.8846M1 93.8846H68.6442M1 93.8846C1 69.4163 1 31.9614 1 15.1346M68.6442 93.8846C68.6442 78.6334 68.6442 40.6628 68.6442 15.1346M68.6442 15.1346C68.6442 12.0751 68.6442 9.1944 68.6442 6.55288C68.6442 2.51442 67.1298 1 63.0913 1C59.0529 1 23.8846 1.16827 6.55288 1C2.51442 1 1 2.51442 1 6.55288C1 7.22022 1 10.34 1 15.1346M68.6442 15.1346H1M28.7644 8.06731H40.8798M42.899 31.7933H19.6779V22.7067L17.6587 20.1827H14.6298V28.2596H8.06731C7.89904 38.0192 7.5625 50.976 11.601 61.5769H16.1442V51.9856C15.6394 51.3125 14.6298 49.6635 14.6298 48.4519C14.6298 47.2404 14.6298 43.5721 14.6298 41.8894H42.899M24.726 36.8413H27.7548M31.7933 36.8413H34.8221M38.8606 36.8413H41.8894M62.0817 41.8894H65.1106M62.0817 31.7933H65.1106M11.0962 82.7788V88.8365H18.1635V82.7788H11.0962ZM25.2308 82.7788V88.8365H31.2885V82.7788H25.2308ZM38.3558 82.7788V88.8365H44.4135V82.7788H38.3558ZM51.4808 82.7788V88.8365H58.5481V82.7788H51.4808ZM21.1923 54.5096V72.6827C21.3606 73.6923 22.2019 75.7115 24.2212 75.7115C26.2404 75.7115 37.1779 75.7115 42.3942 75.7115C43.2356 75.5433 44.9183 74.601 44.9183 72.1779C44.9183 69.7548 44.9183 59.0529 44.9183 54.0048C44.75 53.3317 44.0096 51.9856 42.3942 51.9856C40.7788 51.9856 29.6058 51.9856 24.2212 51.9856C22.2019 51.9856 21.1923 52.8942 21.1923 54.5096ZM33.3077 70.6635C37.851 70.6635 39.8702 67.6346 39.8702 63.5962C39.8702 59.5577 37.3462 57.0337 33.3077 57.0337C29.2692 57.0337 26.7452 60.0625 26.7452 63.5962C26.7452 68.1394 29.2692 70.6635 33.3077 70.6635ZM46.4327 41.8894V22.7067L48.9567 20.1827H51.9856V28.2596H58.5481C58.2115 36.5048 58.5481 50.4712 55.0144 61.5769H49.9663V51.9856C50.4712 51.4808 51.4808 50.0673 51.4808 48.4519C51.4808 46.8365 51.4808 43.4038 51.4808 41.8894H46.4327Z" stroke="white"/>
</svg>
