<svg width="402" height="294" viewBox="0 0 402 294" fill="none" xmlns="http://www.w3.org/2000/svg">
<path d="M159 159C144.167 154.5 112 144.5 102 140.5C100.441 139.876 98.7653 139.245 97.0001 138.617M146 198.5C139.734 199.782 133.36 200.253 127 200.051M97.0001 138.617C84.6122 134.214 67.8163 130 56.0001 130C55.1609 130 54.3255 130.042 53.5003 130.126M97.0001 138.617C93.0471 128.367 86.3594 101.051 90.8358 73M216.5 9.49997C199 15.5 192 38 207.5 48.5M216.5 9.49997C223.716 7.99998 240.035 7.5 247.575 17.5M216.5 9.49997C171.14 -8.89796 135.237 6.91471 113.517 30M207.5 48.5C189.241 61.3 201 74.5 212 77.5C237.2 81.5 257.5 92.8333 264.5 98M207.5 48.5C210.899 46.4817 215.818 43.2821 221.5 39.1729M261 3.00002C258.6 15 224.333 49 207.5 64.5C228.7 69.7 254.333 89 264.5 98M261 3.00002C256.899 8.05516 252.318 12.9264 247.575 17.5M261 3.00002C261 8.35507 258.205 19.8443 248.95 34M264.5 98C254.1 77.2 236.167 62.6667 228.5 58C237.451 49.5996 244.091 41.4323 248.95 34M221.5 39.1729C219.833 37.6152 218 34 222.5 30C227 26 231.667 28.2461 233 30M221.5 39.1729C224.943 36.6829 229.166 33.0974 233 30M233 30C237.96 25.9934 242.606 22.2908 247.575 17.5M248.95 34C255.634 42.5 267.4 57.3 273 76.5M273 76.5C277.083 90.5 286 104.5 314 109.5M273 76.5C278.333 59.8333 291.7 26.4 302.5 26C316 25.5 325 63 314 109.5M314 109.5C328 114 336 119.5 348.5 132.5M348.5 132.5C348.5 123.5 351.5 107.8 363.5 117C365.667 111.5 372.2 103.1 381 113.5C384.5 110 392.6 105.8 397 117C402.5 131 404.5 171.5 385.5 175C382.87 175.484 379.976 175.006 377 173.776M348.5 132.5C349.476 148.77 364.019 168.413 377 173.776M377 173.776C379.833 186.017 380.5 214.5 367 235.5C350.182 261.661 323 296.5 258 292.5M258 292.5C258 198.5 203.5 168 179.5 153C155.5 138 137.5 132.5 113.517 104C94.331 81.2 105.523 45.1667 113.517 30M258 292.5C241.089 291.459 225.803 287.481 212 281.442M127 200.051C112.681 199.595 98.4357 195.724 85.6657 190M127 200.051C145.496 230.421 172.749 264.267 212 281.442M113.517 30C101.001 43.3032 93.1936 59.0216 91.0001 72C90.9437 72.3334 90.889 72.6668 90.8358 73M90.8358 73C84.3906 66.3333 72.2001 56.7999 75.0001 72C25.0002 22.5 -8.99972 32 43.0001 89C38.0003 96.5 31.0003 112 53.5003 130.126M53.5003 130.126C42.6383 131.23 33.5297 139.524 40.5001 153C47.0369 165.638 64.2837 180.416 85.6657 190M85.6657 190C85.1106 200.667 88.8003 221.7 108 220.5C112.334 237.667 127.9 271.1 155.5 267.5C163.667 279.794 186.4 299.795 212 281.442M130.5 67C127 59 133.1 34.8 159.5 32C185.9 29.2 184 58 178 67C169.015 78 146.937 93.4 130.5 67ZM157.5 62.5C157.333 59 159.1 52 167.5 52C174.5 52 175.083 57.5 174.5 61C173.706 65.7626 168.5 68.9091 164 68.5C159.5 68.0909 157.619 65 157.5 62.5ZM247.5 180C247.747 173.776 255.6 162.6 266 169C269.667 163.167 279 154.5 287 166.5C291.667 163 301.2 159.2 302 172C303 188 293.574 225.5 272 225.5C250.426 225.5 246.834 196.833 247.5 180ZM7.50028 126C11.0002 130.126 22.5002 126 18.5003 118.5C14.5003 111 3.50018 120 7.50028 126ZM2.50008 69C0 73.5 -0.899924 82.6 5.50008 89C13.5001 97 17.5 87 16 82.5C14.2322 77.1967 9.50006 67.5 2.50008 69ZM100.5 261.5C90 256.642 93 234.5 108 254.5C111.75 259.5 103.5 262.888 100.5 261.5Z" stroke="#FF3DB0"/>
</svg>
