<svg width="306" height="252" viewBox="0 0 306 252" fill="none" xmlns="http://www.w3.org/2000/svg">
<path d="M150.862 213.403H155.785C157.985 206.069 162.413 188.641 164.267 172.364C164.487 170.427 164.672 168.505 164.811 166.619H188.607C190.517 159.549 197.844 147.221 213.495 139.533H201.736H127.066V136.25C121.049 135.703 109.015 138.712 109.015 155.128V175.647H124.605V186.318H114.758L119.364 210.12H122.699H131.169L136.913 164.157C136.913 178.383 136.585 207.494 135.272 210.12C134.686 211.292 136.583 212.072 139.375 212.576C142.839 213.202 147.681 213.403 150.862 213.403Z" fill="#EFEDC4"/>
<path d="M150.862 237.206V220.79H139.375L122.699 227.357L123.652 232.281L150.862 237.206Z" fill="#D9D8D2"/>
<path d="M92.6038 228.998L121.296 232.281L117.405 220.79H113.792C113.792 223.417 99.6666 227.357 92.6038 228.998Z" fill="#D9D8D2"/>
<path d="M173.017 134.608H201.736V139.533H213.495C214.208 139.183 214.938 138.843 215.685 138.513L199.274 130.41L184.504 123.117C182.227 121.922 177.471 120.235 173.017 120.735V134.608Z" fill="#78B3D4"/>
<path d="M186.145 111.626C186.524 113.709 186.85 117.467 186.145 120.238C185.832 121.472 185.313 122.51 184.504 123.117L199.274 130.41C199.274 121.141 197.633 115.626 196.813 114.027L186.145 111.626Z" fill="#5E8AA3"/>
<path d="M158.247 101.777H113.117L115.11 106.702L127.066 136.25V139.533H201.736V134.608H173.017L168.914 121.981L164.811 109.353L162.35 101.777H158.247Z" fill="#2E2E2C"/>
<path d="M209.121 54.9924C212.129 48.1526 214.372 34.9653 199.274 36.9352C196.813 34.1994 189.756 30.3693 181.222 36.9352C177.94 38.5768 173.345 43.5015 181.222 50.0677C182.863 50.3413 186.802 49.7394 189.428 45.143C192.053 40.5467 195.445 43.7751 196.813 45.9638C197.633 47.0582 199.602 49.0828 200.915 48.4262C202.228 47.7695 202.556 51.9829 202.556 54.1717C202.556 55.266 203.869 56.9623 209.121 54.9924Z" fill="black"/>
<path d="M203.377 70.5873V64.0211C205.838 63.4739 210.434 60.9021 209.121 54.9924C203.869 56.9623 202.556 55.266 202.556 54.1717C202.556 51.9829 202.228 47.7695 200.915 48.4262C199.602 49.0828 197.633 47.0582 196.813 45.9638C195.445 43.7751 192.053 40.5467 189.428 45.143C186.802 49.7394 182.863 50.3413 181.222 50.0677L182.863 64.0211C183.137 65.1154 184.997 67.6325 190.248 68.9457V72.2289C191.889 75.512 196.813 79.7801 203.377 70.5873Z" fill="#D0B07F"/>
<path d="M164.811 109.353L168.914 121.981C171.376 120.44 178.268 117.935 186.145 120.238C186.85 117.467 186.524 113.709 186.145 111.626C183.869 110.196 178.909 108.15 173.017 108.075C170.413 108.042 167.628 108.394 164.811 109.353Z" fill="#D0B07F"/>
<path d="M184.504 123.117C185.313 122.51 185.832 121.472 186.145 120.238C178.268 117.935 171.376 120.44 168.914 121.981C170.19 121.282 171.588 120.896 173.017 120.735C177.471 120.235 182.227 121.922 184.504 123.117Z" fill="#B89C72"/>
<path d="M150.862 213.403C147.681 213.403 142.839 213.202 139.375 212.576V216.683V218.737V220.79H150.862V218.328V213.403Z" fill="#D0B07F"/>
<path d="M109.015 210.12H113.792L109.015 196.011V210.12Z" fill="#F8F49E"/>
<path d="M114.348 211.762L113.792 210.12V218.737V220.79H117.405L114.348 211.762Z" fill="#D0B07F"/>
<path d="M122.699 210.12H119.364L122.223 224.894L122.421 218.737L122.699 210.12Z" fill="#D0B07F"/>
<path fill-rule="evenodd" clip-rule="evenodd" d="M209.121 75.512C196.648 89.3012 187.513 81.2575 184.504 75.512C179.399 77.2882 169.179 83.1004 162.35 93.6504C160.764 96.1008 159.361 98.8067 158.247 101.777H162.35L164.811 109.353C167.628 108.394 170.413 108.042 173.017 108.075C178.909 108.15 183.869 110.196 186.145 111.626L196.813 114.027C197.633 115.626 199.274 121.141 199.274 130.41L215.685 138.513C222.026 135.714 229.628 133.675 238.66 132.967C238.779 124.622 237.798 112.641 234.643 101.777C230.808 88.5733 223.763 77.0194 211.582 75.648C210.784 75.5581 209.964 75.512 209.121 75.512Z" fill="#78B3D5"/>
<path d="M209.121 75.512L203.377 70.5873C196.813 79.7801 191.889 75.512 190.248 72.2289L184.504 75.512C187.513 81.2575 196.648 89.3012 209.121 75.512Z" fill="#5E8AA3"/>
<path d="M213.495 139.533C197.844 147.221 190.517 159.549 188.607 166.619V172.364H207.48H231.275L256.712 101.777H234.643C237.798 112.641 238.779 124.622 238.66 132.967C229.628 133.675 222.026 135.714 215.685 138.513C214.938 138.843 214.208 139.183 213.495 139.533Z" fill="#462302"/>
<path d="M188.607 166.619H164.811C164.672 168.505 164.487 170.427 164.267 172.364H166.453H176.299H188.607V166.619Z" fill="#6A3706"/>
<path d="M114.758 186.318H124.605V175.647H109.015H41.7302H27.781H19.5755V186.318H31.8837H41.7302H105.732H114.758Z" fill="#462302"/>
<path d="M31.8837 186.318L25.3572 224.894L22.8577 239.669H26.1399L30.4572 224.894L41.7302 186.318H31.8837Z" fill="#6A3706"/>
<path d="M114.758 186.318H105.732L109.015 196.011L113.792 210.12L114.348 211.762L117.405 220.79L121.296 232.281L122.964 237.206H124.605L123.652 232.281L122.699 227.357L122.223 224.894L119.364 210.12L114.758 186.318Z" fill="#6A3706"/>
<path d="M19.5755 131.325C17.6062 141.175 21.4901 153.486 23.6782 158.411H33.935C33.935 156.543 33.0769 153.799 31.8837 150.905C30.1406 146.678 27.6824 142.132 26.1399 139.533C24.8271 140.349 21.2167 134.401 19.5755 131.325Z" fill="#57B67D"/>
<path d="M33.935 158.411H44.1918C47.7475 154.307 54.6948 144.129 54.0383 136.25C52.7255 136.25 48.5681 138.439 46.6535 139.533C44.6841 149.382 37.3539 156.222 33.935 158.411Z" fill="#356E4C"/>
<path d="M23.6782 158.411C23.0218 165.634 26.1399 172.912 27.781 175.647H41.7302C44.3559 170.394 44.4653 161.968 44.1918 158.411H33.935H23.6782Z" fill="#D3D3CB"/>
<path fill-rule="evenodd" clip-rule="evenodd" d="M46.6535 139.533C44.6841 149.382 37.3539 156.222 33.935 158.411C33.935 156.543 33.0769 153.799 31.8837 150.905V150.203C31.8837 148.233 35.7129 140.08 37.6275 136.25L37.8364 135.429C38.378 136.915 39.8652 131.44 41.014 126.401C41.2753 125.255 41.519 124.131 41.7302 123.117C42.6692 123.639 43.8948 124.718 44.9424 126.401C46.641 129.128 47.8716 133.441 46.6535 139.533Z" fill="#57B67D"/>
<path d="M31.8837 150.203C31.8837 148.233 35.7129 140.08 37.6275 136.25L37.8364 135.429C37.7035 135.064 37.6275 134.28 37.6275 132.967C37.6275 130.26 37.1937 128.08 36.5645 126.401C34.9043 121.97 31.8837 121.029 31.8837 123.117C31.8837 123.783 31.6642 124.965 31.3064 126.401C30.1174 131.172 27.4014 138.749 26.1399 139.533C27.6824 142.132 30.1406 146.678 31.8837 150.905V150.203Z" fill="#3D7E57"/>
<path d="M256.712 195.346C257.687 195.346 258.842 194.517 259.994 193.32C258.939 192.063 261.987 160.053 258.529 155.128C255.071 150.203 246.866 148.562 245.225 156.769C243.583 164.977 244.404 168.26 241.122 172.364C237.84 176.468 237.168 179.751 234.222 189.601L234.643 192.063L256.712 195.346Z" fill="#57B67D"/>
<path d="M258.529 220.79C269.173 219.477 274.881 211.488 276.405 207.658C279.14 198.903 285.431 180.736 288.713 178.11C291.995 175.483 291.175 168.26 290.354 164.977C288.713 162.789 284.282 159.232 279.687 162.515C275.092 165.798 267.926 179.751 264.918 186.318C263.886 188.21 261.945 191.292 259.994 193.32C258.842 194.517 257.687 195.346 256.712 195.346L258.529 220.79Z" fill="#3D7E57"/>
<path d="M282.969 226.536C285.978 226.536 292.159 225.059 292.816 219.149C293.472 213.239 298.013 212.856 300.201 213.403C304.577 210.668 310.704 204.867 300.201 203.554C289.698 202.241 279.961 205.743 276.405 207.658C274.881 211.488 269.173 219.477 258.529 220.79L269.02 226.536H282.969Z" fill="#57B67D"/>
<path d="M26.1399 239.669H22.8577L25.3572 224.894C8.66024 227.904 -16.6923 235.565 15.4729 242.131C55.6794 250.339 146.93 256.905 234.643 247.056C304.813 239.176 284.063 230.093 264.918 226.536C260.056 224.22 237.206 219.944 183.333 218.686C173.557 218.457 162.759 218.328 150.862 218.328V220.79V237.206L123.652 232.281L124.605 237.206H122.964L121.296 232.281L92.6038 228.998C99.6666 227.357 113.792 223.417 113.792 220.79V218.737C96.2054 218.874 54.9168 220.298 30.4572 224.894L26.1399 239.669Z" fill="#FF3DB0" fill-opacity="0.18"/>
<path d="M37.6275 77.1536V52.5301H28.6015V77.1536H37.6275Z" fill="#ECECEC" fill-opacity="0.1"/>
<path d="M122.699 227.357L139.375 220.79V218.737H122.421L122.223 224.894L122.699 227.357Z" fill="#FF3DB0" fill-opacity="0.18"/>
<path d="M28.6015 52.5301H37.6275H44.5C45.2178 52.4917 46.6535 52.005 46.6535 50.3654V39.3976V32.8493C46.6535 31.8135 46 31.1897 45 31.1897H28.6015H27.3707H9.84675C8.92414 31.1897 8.08801 32 8.08801 33V50.5C8.05867 51.1867 8.4 52.5542 10 52.5301H28.6015Z" fill="#6101C1"/>
<path d="M203.377 70.5873L209.121 75.512C209.964 75.512 210.784 75.5581 211.582 75.648V2C211.582 1 211 0 209.5 0H30.5C29.5 0 28.6015 1 28.6015 2V31.1897H45C46 31.1897 46.6535 31.8135 46.6535 32.8493V39.3976H160C160.783 39.4005 162.35 39.8784 162.35 41.7669V93.6504C169.179 83.1004 179.399 77.2882 184.504 75.512L190.248 72.2289V68.9457C184.997 67.6325 183.137 65.1154 182.863 64.0211L181.222 50.0677C173.345 43.5015 177.94 38.5768 181.222 36.9352C189.756 30.3693 196.813 34.1994 199.274 36.9352C214.372 34.9653 212.129 48.1526 209.121 54.9924C210.434 60.9021 205.838 63.4739 203.377 64.0211V70.5873Z" fill="white" fill-opacity="0.1"/>
<path d="M113.117 101.777H158.247C159.361 98.8067 160.764 96.1008 162.35 93.6504V41.7669C162.35 39.8784 160.783 39.4005 160 39.3976H46.6535V50.3654C46.6535 52.005 45.2178 52.4917 44.5 52.5301H37.6275V77.1536H75.7265C77.2736 77.1536 77.7762 78.5586 77.834 79.2611V101.777H80.2957H94.5C96.3035 101.777 96.7225 103.248 96.7065 103.984V106.702H115.11L113.117 101.777Z" fill="#FF3DB0" fill-opacity="0.18"/>
<path d="M31.3064 126.401C31.6642 124.965 31.8837 123.783 31.8837 123.117C31.8837 121.029 34.9043 121.97 36.5645 126.401H41.014C41.2753 125.255 41.519 124.131 41.7302 123.117C42.6692 123.639 43.8948 124.718 44.9424 126.401H75.4335C77.3803 126.401 77.845 124.8 77.834 124V121.981H66C64.4 121.981 63.9232 120.571 63.8848 119.866V104C63.9951 103.259 64.594 101.777 66.1078 101.777H77.834V79.2611C77.7762 78.5586 77.2736 77.1536 75.7265 77.1536H37.6275H28.6015H10C8.4 77.1536 8.05867 78.4282 8.08801 79.0656V124C8.09355 124.8 8.5814 126.401 10.4885 126.401H31.3064Z" fill="#FF3DB0"/>
<path d="M80.2957 101.777H77.834H66.1078C64.594 101.777 63.9951 103.259 63.8848 104V119.866C63.9232 120.571 64.4 121.981 66 121.981H77.834H94.5C96.5 121.981 96.7065 120.52 96.7065 119.774V106.702V103.984C96.7225 103.248 96.3035 101.777 94.5 101.777H80.2957Z" fill="#6101C1"/>
<path d="M247 55.8132H223.616C222.108 55.8132 221.53 57.2711 221.429 58V68.4005C221.363 69.1295 221.708 70.5873 223.616 70.5873H246.74C248.932 70.5873 249.378 68.8624 249.327 68V58.1404C249.385 57.3647 249 55.8132 247 55.8132Z" fill="#FF3DB0"/>
<path d="M176.299 172.364L186.146 236.385M231.275 172.364L233.737 187.138" stroke="black"/>
<path d="M186.146 52.5302V54.9926M192.71 52.5302V54.9926M193.53 50.0679H196.813M188.607 54.9926C188.334 56.3605 188.279 58.9323 190.248 58.2757" stroke="black"/>
<path d="M200.69 181.963C197.925 181.715 192.973 178.987 195.281 170.056C197.85 160.113 199.848 160.207 202.802 160.346C203.164 160.363 203.541 160.381 203.935 160.381L205.017 163.73C205.218 164.403 205.417 165.156 205.601 165.963C203.603 168.825 200.041 175.998 201.771 181.792C201.433 181.876 201.073 181.934 200.69 181.963Z" fill="#1C1C1C"/>
<path d="M188.069 159.637C189.151 159.637 189.872 160.381 189.872 161.497C189.872 162.614 189.151 163.358 188.069 163.358C186.987 163.358 186.266 162.614 186.266 161.497C186.266 160.381 186.987 159.637 188.069 159.637Z" fill="#1C1C1C"/>
<path d="M171.843 165.591C172.919 165.146 174.295 164.51 175.77 163.73C176.746 166.087 177.365 170.279 172.026 168.195C171.906 167.39 171.843 166.523 171.843 165.591Z" fill="#1C1C1C"/>
<path d="M205.601 165.963C206.923 171.788 207.401 180.393 201.771 181.792C200.041 175.998 203.603 168.825 205.601 165.963Z" fill="#BAB3B3"/>
<path d="M249.008 237.036C248.768 235.175 249.441 231.305 254.056 230.71H263.431C263.431 234.877 259.585 236.664 257.662 237.036C255.521 237.221 252.146 237.036 249.008 237.036Z" fill="white"/>
<path d="M237.469 236.664H229.536C229.657 234.679 230.835 230.784 234.585 231.082H243.628C242.969 233.15 240.997 236.664 237.469 236.664Z" fill="white"/>
<path d="M205.377 237.036H197.805C198.382 232.57 201.411 231.206 202.853 231.082H212.582C211.799 233.741 209.736 237.036 205.377 237.036Z" fill="white"/>
<path d="M189.872 237.036C189.872 235.423 190.882 231.901 194.92 230.71H202.853V231.082C201.411 231.206 198.382 232.57 197.805 237.036H189.872Z" fill="white"/>
<path d="M252.614 152.939C252.133 150.458 252.398 146.39 257.301 149.962C258.393 151.229 259.534 152.875 260.547 154.815C253.912 148.577 254.314 154.19 255.345 157.776C254.6 156.25 253.696 154.639 252.614 152.939Z" fill="#1C1C1C"/>
<path d="M262.371 175.638C262.5 172.165 261.707 166.781 257.506 173.033C258.226 170.969 258.468 168.505 257.985 165.591C258.087 162.366 259.345 157.628 263.565 164.474C263.976 167.946 263.718 171.733 262.371 175.638Z" fill="#1C1C1C"/>
<path d="M263.565 164.474C259.345 157.628 258.087 162.366 257.985 165.591C257.602 163.278 256.763 160.682 255.345 157.776C254.314 154.19 253.912 148.577 260.547 154.815C261.966 157.534 263.134 160.83 263.565 164.474Z" fill="#BAB3B3"/>
<path d="M194.92 210.244C194.193 209.561 192.114 207.502 191.314 202.429C190.851 199.487 190.979 195.468 191.14 190.465C191.206 188.415 191.277 186.199 191.314 183.824C191.216 182.408 190.415 179.838 188.091 178.937C193.498 180.395 195.134 185.818 195.633 191.266C195.848 193.615 195.852 195.968 195.855 198.009C195.858 199.789 195.86 201.332 196.002 202.429C196.081 203.041 196.229 203.665 196.43 204.29C197.697 208.23 201.09 212.252 202.853 213.965C199.68 213.667 196.242 211.36 194.92 210.244Z" fill="white"/>
<path d="M224.128 213.965C221.243 215.081 214.969 217.165 212.95 216.57C213.661 215.99 214.874 215.223 216.555 214.432C218.006 213.75 219.807 213.05 221.935 212.438C225.258 211.482 229.381 210.741 234.224 210.616C233.099 210.732 229.897 211.36 225.209 213.636C224.857 213.741 224.496 213.851 224.128 213.965Z" fill="white"/>
<path d="M241.796 185.685C243.479 184.843 246.7 184.622 246.123 190.465C245.546 196.309 242.037 197.929 240.354 198.009C236.988 198.242 230.762 197.964 232.782 194.987C234.801 192.01 239.633 187.545 241.796 185.685Z" fill="#1C1C1C"/>
<path d="M249.008 207.267C250.21 207.613 252.614 209.132 252.614 212.438C252.614 215.743 249.489 214.833 247.926 213.965C245.522 210.009 242.373 203.13 249.008 207.267Z" fill="#1C1C1C"/>
<path d="M201.411 148.474C202.973 148.598 206.531 149.962 208.262 154.427C208.322 154.581 208.384 154.743 208.448 154.912C206.913 154.779 203.674 153.73 201.129 150.706C200.582 150.057 200.067 149.316 199.608 148.474H201.411Z" fill="#1C1C1C"/>
<path d="M193.478 148.474H199.608C200.067 149.316 200.582 150.057 201.129 150.706C198.579 150.954 193.478 150.855 193.478 148.474Z" fill="#BAB3B3"/>
<path d="M263.431 218.802L263.431 220.663C261.864 220.167 258.803 218.133 259.097 213.965C260.231 216.022 261.661 217.787 263.431 218.802Z" fill="#55380C"/>
<path d="M254.056 227.547V224.384C252.938 223.857 251.573 223.181 250.09 222.403C256.724 220.819 255.499 225.172 254.056 227.547Z" fill="#1C1C1C"/>
<path fill-rule="evenodd" clip-rule="evenodd" d="M243.737 218.802C239.681 216.299 235.282 212.799 234.224 210.616C233.099 210.732 229.897 211.36 225.209 213.636C227.806 220.219 232.541 223.544 234.585 224.384V231.082H243.628C243.67 230.952 243.706 230.827 243.737 230.71V223.268C242.369 223.516 239.561 223.565 239.272 221.779C239.211 221.399 239.128 220.996 239.046 220.596C238.648 218.651 238.26 216.76 240.354 217.686C242.373 218.579 243.451 220.291 243.737 221.035V218.802Z" fill="#B1AEA6"/>
<path d="M243.737 223.268C242.369 223.516 239.561 223.565 239.272 221.779C239.211 221.399 239.128 220.996 239.046 220.596C238.648 218.651 238.26 216.76 240.354 217.686C242.373 218.579 243.451 220.291 243.737 221.035V223.268Z" fill="#55380C"/>
<path d="M212.95 216.57V220.663C210.666 215.269 208.19 206.47 216.555 214.432C214.874 215.223 213.661 215.99 212.95 216.57Z" fill="#BAB3B3"/>
<path d="M220.161 199.081C221.253 198.336 223.286 197.964 222.685 202.429C222.085 206.895 223.397 208.259 224.128 208.383C224.27 209.872 223.675 212.179 220.161 209.5C218.759 208.43 217.406 207.551 216.133 206.861C215.123 205.03 214.45 202.78 214.388 200.047C214.598 200.056 214.809 200.067 215.018 200.078C217.15 200.188 219.197 200.294 220.161 199.081Z" fill="#1C1C1C"/>
<path d="M209.344 205.034C206.82 205.406 207.18 202.057 210.065 200.569C211.227 199.969 212.804 199.974 214.388 200.047C214.45 202.78 215.123 205.03 216.133 206.861C213.418 205.39 211.062 204.781 209.344 205.034Z" fill="#1C1C1C"/>
<path d="M209.344 180.775C210.906 180.427 213.743 180.996 212.589 186.057C211.435 191.117 208.262 188.661 206.82 186.801C204.055 186.505 200.69 184.884 209.344 180.775Z" fill="#1C1C1C"/>
<path d="M228.094 185.685C229.056 185.579 230.835 185.879 230.258 187.917C229.681 189.956 227.854 189.759 227.012 189.406C226.171 189.298 225.209 188.403 228.094 185.685Z" fill="#55380C"/>
<path d="M234.224 203.174C235.065 202.678 236.604 202.355 236.027 205.034C235.45 207.713 233.623 206.895 232.782 206.151L234.224 203.174Z" fill="#BAB3B3"/>
<path fill-rule="evenodd" clip-rule="evenodd" d="M194.92 216.57V230.71H202.853V213.965C199.68 213.667 196.242 211.36 194.92 210.244V216.57ZM194.92 216.57C194.92 214.784 196.843 215.329 197.805 215.825C199.007 215.453 201.267 215.528 200.69 218.802C200.113 222.077 196.603 218.678 194.92 216.57Z" fill="#B1AEA6"/>
<path d="M197.805 215.825C199.007 215.453 201.267 215.528 200.69 218.802C200.113 222.077 196.603 218.678 194.92 216.57C194.92 214.784 196.843 215.329 197.805 215.825Z" fill="#1C1C1C"/>
<path d="M196.002 202.429C195.86 201.332 195.858 199.789 195.855 198.009C195.852 195.968 195.848 193.615 195.633 191.266C197.662 192.492 200.662 196.813 196.43 204.29C196.229 203.665 196.081 203.041 196.002 202.429Z" fill="#55380C"/>
<path d="M213.564 169.312C213.853 170.151 214.131 170.96 214.392 171.721V178.633C211.574 176.031 212.406 171.76 213.564 169.312Z" fill="#1C1C1C"/>
<path d="M214.392 171.721C214.804 172.925 215.173 174.006 215.474 174.893C215.825 176.433 217.2 179.174 220.161 180.775C217.421 180.533 215.581 179.732 214.392 178.633V171.721Z" fill="#1C1C1C"/>
<path fill-rule="evenodd" clip-rule="evenodd" d="M254.056 227.547C255.499 225.172 256.724 220.819 250.09 222.403C248.082 221.35 245.858 220.111 243.737 218.802C239.681 216.299 235.282 212.799 234.224 210.616C229.381 210.741 225.258 211.482 221.935 212.438C219.807 213.05 218.006 213.75 216.555 214.432C208.19 206.47 210.666 215.269 212.95 220.663V229.221C212.9 229.755 212.784 230.397 212.582 231.082H202.853V230.71V213.965C201.09 212.252 197.697 208.23 196.43 204.29C200.662 196.813 197.662 192.492 195.633 191.266C195.134 185.818 193.498 180.395 188.091 178.937C187.564 178.733 186.959 178.614 186.266 178.614C181.958 178.614 173.384 177.357 172.026 168.195C177.365 170.279 176.746 166.087 175.77 163.73C180.06 161.461 185.193 157.972 186.266 154.427C187.709 152.443 191.17 148.474 193.478 148.474C193.478 150.855 198.579 150.954 201.129 150.706C203.674 153.73 206.913 154.779 208.448 154.912C209.707 158.216 211.839 164.305 213.564 169.312C212.406 171.76 211.574 176.031 214.392 178.633C215.581 179.732 217.421 180.533 220.161 180.775C221.257 181.367 222.569 181.803 224.128 181.963C229.897 182.559 241.195 182.212 246.123 181.963C247.705 181.674 249.479 181.098 251.171 180.181C256.075 182.327 255.997 178.84 255.345 176.828C256.247 175.751 256.996 174.492 257.506 173.033C261.707 166.781 262.5 172.165 262.371 175.638C260.807 180.173 257.774 184.866 252.614 189.406C253.575 189.654 255.499 192.531 255.499 202.057C255.815 204.918 256.905 209.988 259.097 213.965C258.803 218.133 261.864 220.167 263.431 220.663L263.431 230.71H254.056V227.547ZM200.69 181.963C197.925 181.715 192.973 178.987 195.281 170.056C197.85 160.113 199.848 160.207 202.802 160.346C203.164 160.363 203.541 160.381 203.935 160.381L205.017 163.73C205.218 164.403 205.417 165.156 205.601 165.963C206.923 171.788 207.401 180.393 201.771 181.792C201.433 181.876 201.073 181.934 200.69 181.963ZM188.069 159.637C189.151 159.637 189.872 160.381 189.872 161.497C189.872 162.614 189.151 163.358 188.069 163.358C186.987 163.358 186.266 162.614 186.266 161.497C186.266 160.381 186.987 159.637 188.069 159.637ZM241.796 185.685C243.479 184.843 246.7 184.622 246.123 190.465C245.546 196.309 242.037 197.929 240.354 198.009C236.988 198.242 230.762 197.964 232.782 194.987C234.801 192.01 239.633 187.545 241.796 185.685ZM252.614 212.438C252.614 209.132 250.21 207.613 249.008 207.267C242.373 203.13 245.522 210.009 247.926 213.965C249.489 214.833 252.614 215.743 252.614 212.438ZM215.018 200.078C214.809 200.067 214.598 200.056 214.388 200.047C212.804 199.974 211.227 199.969 210.065 200.569C207.18 202.057 206.82 205.406 209.344 205.034C211.062 204.781 213.418 205.39 216.133 206.861C217.406 207.551 218.759 208.43 220.161 209.5C223.675 212.179 224.27 209.872 224.128 208.383C223.397 208.259 222.085 206.895 222.685 202.429C223.286 197.964 221.253 198.336 220.161 199.081C219.197 200.294 217.15 200.188 215.018 200.078ZM212.589 186.057C213.743 180.996 210.906 180.427 209.344 180.775C200.69 184.884 204.055 186.505 206.82 186.801C208.262 188.661 211.435 191.117 212.589 186.057ZM228.094 185.685C229.056 185.579 230.835 185.879 230.258 187.917C229.681 189.956 227.854 189.759 227.012 189.406C226.171 189.298 225.209 188.403 228.094 185.685ZM236.027 205.034C236.604 202.355 235.065 202.678 234.224 203.174L232.782 206.151C233.623 206.895 235.45 207.713 236.027 205.034Z" fill="#C6C2BA"/>
<path d="M251.171 180.181C252.696 179.354 254.154 178.25 255.345 176.828C255.997 178.84 256.075 182.327 251.171 180.181Z" fill="#BAB3B3"/>
<path d="M56.7631 175.103C57.684 175.703 58.4209 175.903 59.8946 174.903C60.9997 174.152 61.5524 172.665 62.2893 170.907C62.3507 170.707 62.6209 170.307 63.2104 170.307V166.711H64.3156V163.314H63.2104C63.1997 163.344 63.0636 163.332 62.9285 163.324C62.8439 163.329 62.7533 163.337 62.6577 163.347C62.4357 163.372 62.1864 163.41 61.9208 163.467C61.5159 163.554 61.073 163.683 60.6314 163.867C60.3192 163.998 60.0076 164.156 59.7103 164.347C59.0865 164.937 58.6674 165.695 58.4209 166.495C58.4159 166.511 57.1314 167.325 56.3946 168.417C55.4736 171.308 55.2893 173.705 56.7631 175.103Z" fill="white"/>
<path d="M59.7103 164.347C59.3792 164.56 59.0659 164.813 58.7893 165.113C58.0678 165.895 57.067 167.019 56.3946 168.417C57.1314 167.325 58.4159 166.511 58.4209 166.495C58.6674 165.695 59.0865 164.937 59.7103 164.347Z" fill="#D9D9D9"/>
<path d="M63.2104 170.307H72.7892V166.711H71.6839H64.3156H63.2104V170.307Z" fill="#D9D9D9"/>
<path d="M71.6839 163.314H64.3156V166.711H71.6839V163.314Z" fill="white"/>
<path d="M72.7892 170.307C73.0348 170.307 73.6734 170.627 74.2629 171.906C74.9997 173.504 77.2102 176.701 79.0523 175.302C80.825 173.956 80.38 172.055 79.6873 168.709C79.23 168.043 78.168 166.671 77.5786 166.511C77.333 165.78 76.5839 164.237 75.5523 163.914C75.4928 163.914 75.3948 163.851 75.1839 163.766C74.8613 163.637 74.2747 163.456 73.1576 163.367C72.7437 163.334 72.257 163.314 71.6839 163.314V166.711H72.7892V170.307Z" fill="white"/>
<path d="M79.6049 168.309C79.4821 167.91 78.8681 166.751 77.3944 165.312C77.0874 165.046 76.4734 164.473 76.4734 164.313C76.4734 164.114 75.7365 163.914 75.5523 163.914C76.5839 164.237 77.333 165.78 77.5786 166.511C78.168 166.671 79.23 168.043 79.6873 168.709C79.6601 168.578 79.6327 168.445 79.6049 168.309Z" fill="#D9D9D9"/>
<path d="M74.447 162.515C73.4155 162.515 73.1576 163.083 73.1576 163.367C74.3365 163.048 75.4117 163.332 75.8019 163.514C75.8612 163.443 75.9004 163.37 75.9207 163.314C75.8593 163.048 75.4786 162.515 74.447 162.515Z" fill="#D9D9D9"/>
<path d="M61.7367 162.515C60.7051 162.515 60.4472 163.083 60.4472 163.367C61.6261 163.048 62.2675 163.165 62.6577 163.347C62.6858 163.314 62.8068 163.317 62.9285 163.324C63.0318 163.317 63.1263 163.314 63.2104 163.314C63.149 163.048 62.7683 162.515 61.7367 162.515Z" fill="#D9D9D9"/>
<path d="M73.1576 163.367C74.2747 163.456 74.8613 163.637 75.1839 163.766C75.4796 163.795 75.682 163.658 75.8019 163.514C75.4117 163.332 74.3365 163.048 73.1576 163.367Z" fill="#D9D9D9"/>
<path d="M62.6577 163.347C62.2675 163.165 61.6261 163.048 60.4472 163.367C60.3858 163.518 60.8156 163.516 60.6314 163.867C61.073 163.683 61.5159 163.554 61.9208 163.467C62.1864 163.41 62.4357 163.372 62.6577 163.347Z" fill="#D9D9D9"/>
</svg>
