<svg width="24" height="14" viewBox="0 0 24 14" fill="none" xmlns="http://www.w3.org/2000/svg">
<path d="M23.5069 13.4244C22.6519 13.6419 22.1231 13.4338 21.6488 12.7213C20.5837 11.1257 19.4081 9.60317 18.2738 8.05254C18.1275 7.85192 17.9756 7.65504 17.7863 7.40567C16.4438 9.21692 15.1031 10.9419 13.845 12.7363C13.395 13.3775 12.9225 13.6569 12.0825 13.43L17.13 6.65567L12.4312 0.537543C13.2394 0.380043 13.7981 0.460668 14.2931 1.18442C15.3862 2.78192 16.5919 4.30254 17.7937 5.91129C19.0031 4.30817 20.1937 2.78567 21.3187 1.20317C21.7706 0.561918 22.2563 0.318168 23.0681 0.554418C22.4531 1.37004 21.8512 2.17254 21.2456 2.96942C20.4281 4.04379 19.6256 5.13129 18.7781 6.18317C18.4762 6.55817 18.525 6.80192 18.795 7.15629C20.3625 9.21692 21.9112 11.2982 23.5069 13.4244ZM0.00562502 6.54317C0.140625 5.86629 0.230625 5.17629 0.418125 4.51254C1.54313 0.494418 6.15562 -1.17621 9.32438 1.31379C11.1806 2.77442 11.6419 4.83317 11.55 7.15442H1.0875C0.93 11.3188 3.92813 13.8332 7.74938 12.5507C9.09 12.1007 9.87937 11.0507 10.275 9.73817C10.4756 9.08004 10.8075 8.97692 11.4263 9.16442C11.1094 10.8069 10.3913 12.1794 8.89125 13.0382C6.64125 14.3244 3.42937 13.9082 1.74 12.1213C0.7425 11.0713 0.31875 9.76442 0.13125 8.35254C0.103125 8.12754 0.045 7.90629 0 7.68317C0.00375 7.30317 0.00562502 6.92317 0.00562502 6.54317ZM1.10625 6.26379H10.5619C10.5 3.25254 8.625 1.11317 6.06188 1.09442C3.24938 1.07192 1.22812 3.16067 1.10625 6.26379Z" fill="white"/>
</svg>
