<svg width="24" height="24" viewBox="0 0 24 24" fill="none" xmlns="http://www.w3.org/2000/svg">
<g clip-path="url(#clip0_201_356)">
<path d="M7.78461 19.4206C7.84381 19.4183 7.90225 19.4143 7.95984 19.4089C7.96269 19.4193 7.96578 19.4296 7.9691 19.4398C7.92657 19.4759 7.86413 19.4997 7.79306 19.503C7.78736 19.5033 7.78161 19.5034 7.77581 19.5034C7.76927 19.504 7.76282 19.5045 7.75645 19.5048C7.6617 19.5092 7.58583 19.4796 7.54307 19.4293C7.54221 19.4266 7.54139 19.4238 7.54059 19.421C7.61345 19.4238 7.68547 19.4239 7.75645 19.4217C7.76035 19.4215 7.76425 19.4214 7.76815 19.4213C7.7707 19.4212 7.77325 19.4211 7.77581 19.421C7.77874 19.4209 7.78168 19.4208 7.78461 19.4206ZM3.69958 15.7744C3.69935 15.7744 3.69912 15.7744 3.65806 16.2727L3.69912 15.7744L3.68176 15.773L3.66434 15.7727C3.49379 15.7706 3.33635 15.7819 3.19812 15.815C3.06595 15.8466 2.89897 15.9104 2.77151 16.0544C2.62561 16.2191 2.59242 16.4181 2.61863 16.5854C2.64161 16.732 2.70779 16.8502 2.75899 16.9269C2.86284 17.0824 3.00736 17.2155 3.10154 17.2959C3.15286 17.3396 3.19906 17.3759 3.23273 17.4015C3.24968 17.4144 3.26374 17.4248 3.27403 17.4323L3.28661 17.4414L3.29064 17.4443L3.29205 17.4453L3.2926 17.4457L3.29284 17.4458C3.29294 17.4459 3.29305 17.446 3.58065 17.037L3.29305 17.446L3.32878 17.4711L3.36832 17.4896C3.61442 17.6051 3.88557 17.9355 4.11862 18.3361C4.22658 18.5217 4.31275 18.6982 4.37195 18.8286C4.4014 18.8934 4.42379 18.946 4.43851 18.9816C4.44587 18.9994 4.45128 19.0129 4.45468 19.0214C4.90844 20.4126 6.19721 20.8264 7.19291 20.9241C7.69956 20.9738 8.17629 20.9488 8.52531 20.9122C8.52667 21.3109 8.52907 21.7429 8.53146 22.1342C8.53255 22.3115 8.53363 22.4801 8.53461 22.6336C8.53693 22.9954 8.53871 23.2727 8.53871 23.3793C8.53871 23.4407 8.51654 23.4728 8.50978 23.4792C8.50863 23.4803 8.50177 23.4873 8.47726 23.4932C8.4533 23.499 8.40529 23.5049 8.32521 23.4935C3.73151 21.8961 0.5 17.3927 0.5 12.109C0.5 5.49205 5.41974 0.5 11.8452 0.5C18.2875 0.5 23.5 5.50896 23.5 12.109C23.5 17.3996 20.3585 21.8981 15.7574 23.4836C15.6785 23.495 15.6311 23.4891 15.6073 23.4833C15.5832 23.4776 15.5756 23.4704 15.5735 23.4685L15.5735 23.4685C15.5653 23.4608 15.5435 23.428 15.5435 23.3694C15.5435 23.2363 15.5451 22.923 15.5472 22.5018C15.5483 22.284 15.5496 22.0374 15.5508 21.7719C15.5544 20.9944 15.5581 20.058 15.5581 19.2205C15.5581 18.4417 15.4029 17.8035 15.1498 17.3089C16.2431 17.158 17.3876 16.9107 18.3134 16.2646C19.5392 15.4091 20.2903 13.9343 20.2903 11.4341C20.2903 10.6907 20.1595 10.1042 19.9077 9.5766C19.701 9.14377 19.421 8.76913 19.1055 8.39777C19.2799 7.78266 19.4805 6.5145 18.8827 4.96174L18.7971 4.73917L18.5702 4.66569C18.1655 4.53462 17.7055 4.61696 17.3215 4.73442C16.9182 4.85782 16.5009 5.05164 16.1331 5.24685C15.7626 5.44353 15.4273 5.64969 15.1855 5.80592C15.1094 5.85509 15.0422 5.89954 14.9857 5.93749C14.0383 5.68784 13.0339 5.55946 12.0387 5.55946C11.0434 5.55946 10.0388 5.68788 9.0913 5.93759C9.03478 5.89974 8.96756 5.85537 8.89142 5.8063C8.64969 5.65049 8.31444 5.44485 7.94399 5.24855C7.57627 5.0537 7.1592 4.86017 6.75616 4.7366C6.37253 4.61898 5.91332 4.53615 5.50935 4.66501L5.28112 4.7378L5.19484 4.96128C4.59648 6.51121 4.79779 7.78294 4.9723 8.39863C4.65616 8.77705 4.39694 9.15559 4.21295 9.59531C3.992 10.1233 3.89355 10.7052 3.89355 11.4341C3.89355 13.9195 4.60959 15.3954 5.80374 16.2564C6.71015 16.91 7.83717 17.1602 8.92647 17.311C8.78972 17.5789 8.67972 17.8878 8.6073 18.2367C8.30108 18.3522 7.89136 18.4533 7.47308 18.4149C6.97437 18.3692 6.41263 18.1233 5.96333 17.311L5.96183 17.3084C5.56632 16.6037 5.00581 16.2193 4.54815 16.0138C4.32023 15.9115 4.11617 15.8526 3.96649 15.8189C3.89141 15.802 3.82926 15.7912 3.78367 15.7846C3.76086 15.7812 3.74211 15.7789 3.72789 15.7773L3.70998 15.7754L3.70364 15.7748L3.70115 15.7746L3.70008 15.7745L3.69958 15.7744ZM6.73065 19.3446C6.8065 19.3745 6.88939 19.3684 6.94962 19.337C6.88495 19.3206 6.82041 19.3017 6.7561 19.2801C6.75229 19.2788 6.74848 19.2775 6.74468 19.2762C6.74411 19.276 6.74354 19.2758 6.74296 19.2756L6.72429 19.3433C6.7264 19.3437 6.72852 19.3442 6.73065 19.3446ZM6.73473 19.2728L6.71383 19.3407C6.63142 19.3196 6.56658 19.2711 6.53564 19.2148C6.53551 19.2083 6.53557 19.2017 6.53583 19.195C6.60175 19.2239 6.66811 19.2498 6.73473 19.2728ZM5.1419 17.912C5.14759 17.9471 5.16089 17.9842 5.18183 18.0205C5.18513 18.0263 5.18863 18.032 5.19231 18.0377C5.19377 18.0399 5.19526 18.0422 5.19677 18.0444C5.22757 18.0898 5.26678 18.125 5.30681 18.1478C5.2792 18.108 5.25196 18.0671 5.22511 18.0252C5.22367 18.0229 5.22222 18.0206 5.22077 18.0184C5.21755 18.0133 5.21434 18.0082 5.21113 18.0031C5.19142 17.9719 5.17192 17.94 5.15265 17.9075C5.14907 17.909 5.14549 17.9105 5.1419 17.912ZM5.71045 18.6301C5.72215 18.6808 5.75218 18.7339 5.79847 18.7774C5.80261 18.7812 5.80689 18.7851 5.81129 18.7888C5.81132 18.7888 5.81135 18.7889 5.81138 18.7889C5.87486 18.854 5.94777 18.8867 6.01037 18.8882C5.95478 18.8467 5.89984 18.8024 5.84565 18.7553C5.84537 18.755 5.84509 18.7548 5.84481 18.7546C5.84395 18.7538 5.84308 18.7531 5.84221 18.7523C5.83931 18.7498 5.83641 18.7472 5.83351 18.7447C5.79203 18.7082 5.75099 18.67 5.71045 18.6301ZM4.73904 17.3764L4.75983 17.3561C4.77957 17.3762 4.79915 17.397 4.81853 17.4185C4.815 17.4221 4.81153 17.4257 4.80812 17.4293C4.78375 17.4157 4.76017 17.3977 4.73904 17.3764ZM4.7492 17.3454L4.72814 17.3638C4.7249 17.3597 4.72179 17.3557 4.71879 17.3516C4.72635 17.3471 4.73383 17.3424 4.74125 17.3375C4.7439 17.3401 4.74655 17.3427 4.7492 17.3454ZM8.52574 19.3717C8.5726 19.3958 8.63427 19.4054 8.70128 19.394L8.68756 19.2646C8.63578 19.2802 8.58229 19.2951 8.52724 19.3092C8.52736 19.3144 8.52742 19.3195 8.52742 19.3248C8.52742 19.3407 8.52685 19.3563 8.52574 19.3717ZM8.75153 19.3816L8.72012 19.2547C8.77158 19.2388 8.82127 19.2223 8.86902 19.2055L8.93471 19.1972C8.93635 19.21 8.9372 19.2226 8.93734 19.2349C8.9117 19.2982 8.84269 19.3528 8.75153 19.3816ZM8.93345 19.1879L8.90801 19.1916C8.91628 19.1886 8.92449 19.1856 8.93264 19.1826C8.93292 19.1844 8.93319 19.1861 8.93345 19.1879Z" stroke="#FF3DB0"/>
</g>
<defs>
<clipPath id="clip0_201_356">
<rect width="24" height="24" fill="white"/>
</clipPath>
</defs>
</svg>
