<svg width="11" height="24" viewBox="0 0 11 24" fill="none" xmlns="http://www.w3.org/2000/svg">
<path fill-rule="evenodd" clip-rule="evenodd" d="M9.64612 7.88389C9.94706 8.75445 10.1638 9.6432 10.2351 10.5644C10.3236 11.7072 10.2831 12.8419 10.0421 13.966C10.0356 13.9969 10.0217 14.026 10.0114 14.056C9.93581 14.0562 9.85875 14.0468 9.78487 14.0583C9.16068 14.1563 8.53706 14.2579 7.91343 14.359C7.26881 14.4634 6.62325 14.5638 5.97975 14.6753C5.75175 14.7147 5.46956 14.6676 5.3775 14.983C5.37487 14.9916 5.34862 14.9931 5.33343 14.998L5.36456 13.1135L5.33287 8.5662L5.63325 8.51464C6.1245 8.4342 6.61575 8.35264 7.10737 8.27445C7.69406 8.18126 8.28131 8.0907 8.86837 7.99976C9.12731 7.95945 9.38662 7.92251 9.64612 7.88389Z" fill="#439934"/>
<path fill-rule="evenodd" clip-rule="evenodd" d="M4.71318 20.4918C4.39631 20.2193 4.06837 19.9589 3.76462 19.6724C2.13018 18.1308 0.934683 16.3163 0.345933 14.1288C0.183745 13.5267 0.0755579 12.9149 0.0408704 12.2928C0.0164954 11.8574 -0.0187552 11.4181 0.0119948 10.9849C0.0939323 9.83295 0.260433 8.69201 0.598308 7.58239L0.61687 7.55651C0.649683 7.6002 0.696932 7.63882 0.71362 7.68814C1.04343 8.65939 1.37081 9.63139 1.6965 10.6039C2.71987 13.6602 3.74193 16.7172 4.76699 19.7727C4.78706 19.8323 4.83899 19.8813 4.87631 19.9351L4.71318 20.4918Z" fill="#45A538"/>
<path fill-rule="evenodd" clip-rule="evenodd" d="M9.64612 7.88389C9.38662 7.92251 9.12731 7.95945 8.86837 7.99976C8.28131 8.0907 7.69406 8.18126 7.10737 8.27445C6.61575 8.35264 6.1245 8.4342 5.63325 8.51464L5.33287 8.5662L5.33043 8.36989C5.3205 8.20882 5.30343 8.04795 5.30156 7.88689C5.28862 6.85976 5.28056 5.83264 5.26781 4.80551C5.25993 4.16257 5.24812 3.51982 5.23499 2.87707C5.22693 2.4777 5.21831 2.07814 5.20031 1.67932C5.19056 1.46501 5.15606 1.25182 5.14199 1.03751C5.13412 0.914324 5.14499 0.790199 5.14743 0.666449C5.30062 0.963262 5.45043 1.26232 5.60793 1.55689C5.85674 2.02264 6.25312 2.36576 6.60993 2.7402C8.0205 4.21995 9.02193 5.94045 9.64612 7.88389Z" fill="#46A037"/>
<path fill-rule="evenodd" clip-rule="evenodd" d="M5.33343 14.998C5.34862 14.9931 5.37487 14.9916 5.3775 14.983C5.46956 14.6676 5.75175 14.7147 5.97975 14.6753C6.62325 14.5638 7.26881 14.4634 7.91343 14.359C8.53706 14.2579 9.16068 14.1563 9.78487 14.0583C9.85875 14.0468 9.93581 14.0562 10.0114 14.056C9.89475 14.4723 9.80268 14.8973 9.65475 15.3021C9.48675 15.7613 9.2835 16.2094 9.06768 16.6488C8.7446 17.304 8.34473 17.9185 7.8765 18.4793C7.51668 18.9121 7.11562 19.312 6.71362 19.7071C6.49143 19.9255 6.2295 20.1034 5.98574 20.2998L5.92256 20.2566L5.69493 20.062L5.45943 19.5458C5.29857 18.9437 5.21082 18.3243 5.19806 17.7012L5.20237 17.596L5.23443 17.1411C5.24512 16.9859 5.25937 16.8308 5.26593 16.6752C5.29012 16.1161 5.31131 15.5571 5.33343 14.998Z" fill="#409433"/>
<path fill-rule="evenodd" clip-rule="evenodd" d="M5.33343 14.998C5.31131 15.5571 5.29012 16.1161 5.26593 16.6752C5.25937 16.8308 5.24512 16.9859 5.23443 17.1411L5.09137 17.1955C4.77281 16.2576 4.45406 15.3297 4.14224 14.3993C3.62662 12.8601 3.11718 11.3185 2.60231 9.77895C2.18645 8.53629 1.7677 7.2946 1.34606 6.05389C1.32637 5.99576 1.26975 5.95039 1.23037 5.89901L2.14837 4.21114C2.17987 4.26589 2.2215 4.31707 2.24137 4.37595C2.66653 5.6326 3.08953 6.88997 3.51037 8.14807C4.05712 9.78495 4.6005 11.4231 5.14687 13.0602C5.16862 13.1256 5.20462 13.186 5.23893 13.2593L5.36456 13.1135L5.33343 14.998Z" fill="#4FAA41"/>
<path fill-rule="evenodd" clip-rule="evenodd" d="M1.23037 5.89901C1.26975 5.95039 1.32637 5.99576 1.34606 6.05389C1.7677 7.2946 2.18645 8.53629 2.60231 9.77895C3.11718 11.3185 3.62662 12.8601 4.14224 14.3993C4.45406 15.3297 4.77281 16.2576 5.09137 17.1955L5.23443 17.1411L5.20237 17.596L5.17387 17.7012C5.124 18.1992 5.082 18.6983 5.02125 19.1952C4.99068 19.4442 4.92562 19.6885 4.87631 19.9351C4.83899 19.8813 4.78706 19.8323 4.76699 19.7727C3.74193 16.7172 2.71987 13.6602 1.6965 10.6039C1.37081 9.63139 1.04343 8.65939 0.71362 7.68814C0.696932 7.63882 0.649683 7.6002 0.61687 7.55651L1.23037 5.89901Z" fill="#4AA73C"/>
<path fill-rule="evenodd" clip-rule="evenodd" d="M5.36456 13.1135L5.23893 13.2593C5.20462 13.186 5.16862 13.1256 5.14687 13.0602C4.6005 11.4231 4.05712 9.78495 3.51037 8.14807C3.08953 6.88997 2.66653 5.6326 2.24137 4.37595C2.2215 4.31707 2.17987 4.26589 2.14837 4.21114L3.2835 2.71789C3.31931 2.7657 3.37031 2.80826 3.38887 2.86207C3.70406 3.78476 4.01643 4.70857 4.32693 5.63295C4.617 6.4962 4.90275 7.36076 5.19618 8.22289C5.21587 8.28064 5.28468 8.32114 5.33043 8.36989L5.33287 8.5662C5.34374 10.0816 5.35406 11.5977 5.36456 13.1135Z" fill="#57AE47"/>
<path fill-rule="evenodd" clip-rule="evenodd" d="M5.33043 8.36989C5.28468 8.32114 5.21587 8.28064 5.19618 8.22289C4.90275 7.36076 4.617 6.4962 4.32693 5.63295C4.01643 4.70857 3.70406 3.78476 3.38887 2.86207C3.37031 2.80826 3.31931 2.7657 3.2835 2.71789C3.65268 2.35639 4.01081 1.98157 4.39481 1.63676C4.73624 1.33039 5.01075 1.00189 5.02331 0.517762C5.02387 0.497699 5.03437 0.477637 5.0505 0.421387L5.14743 0.666449C5.14499 0.790199 5.13412 0.914324 5.14199 1.03751C5.15606 1.25182 5.19056 1.46501 5.20031 1.67932C5.21831 2.07814 5.22693 2.4777 5.23499 2.87707C5.24812 3.51982 5.25993 4.16257 5.26781 4.80551C5.28056 5.83264 5.28862 6.85976 5.30156 7.88689C5.30343 8.04795 5.3205 8.20882 5.33043 8.36989Z" fill="#60B24F"/>
<path fill-rule="evenodd" clip-rule="evenodd" d="M4.87631 19.9351C4.92562 19.6885 4.99068 19.4442 5.02125 19.1952C5.082 18.6983 5.124 18.1992 5.17387 17.7012L5.18587 17.6991L5.19806 17.7012C5.21082 18.3243 5.29857 18.9437 5.45943 19.5458C5.42643 19.5893 5.37993 19.6281 5.3625 19.6773C5.22618 20.0616 5.09775 20.449 4.96068 20.8334C4.94193 20.8859 4.88981 20.9268 4.85306 20.9729L4.71318 20.4918L4.87631 19.9351Z" fill="#A9AA88"/>
<path fill-rule="evenodd" clip-rule="evenodd" d="M4.85306 20.9729C4.88981 20.9268 4.94193 20.8859 4.96068 20.8334C5.09775 20.449 5.22618 20.0616 5.3625 19.6773C5.37993 19.6281 5.42643 19.5893 5.45943 19.5458L5.69493 20.062C5.64843 20.128 5.5845 20.1878 5.55862 20.2613L5.10787 21.5849C5.08931 21.6379 5.02593 21.6754 4.98356 21.7203L4.85306 20.9729Z" fill="#B6B598"/>
<path fill-rule="evenodd" clip-rule="evenodd" d="M4.98356 21.7203C5.02593 21.6754 5.08931 21.6379 5.10787 21.5849L5.55862 20.2613C5.5845 20.1878 5.64843 20.128 5.69493 20.062L5.92256 20.2566C5.8125 20.3654 5.75174 20.491 5.78849 20.6498L5.71931 20.8763C5.68781 20.9151 5.64224 20.9489 5.62668 20.9933C5.46937 21.4439 5.31918 21.8969 5.16074 22.3474C5.14068 22.4046 5.08499 22.4494 5.04562 22.4997C5.02518 22.2396 5.00437 21.9803 4.98356 21.7203Z" fill="#C2C1A7"/>
<path fill-rule="evenodd" clip-rule="evenodd" d="M5.04562 22.4997C5.08499 22.4494 5.14068 22.4046 5.16074 22.3474C5.31918 21.8969 5.46937 21.4439 5.62668 20.9933C5.64224 20.9489 5.68781 20.9151 5.71931 20.8763L5.62406 21.916C5.59856 21.9454 5.56162 21.9711 5.54943 22.0054C5.44162 22.3081 5.34 22.613 5.23181 22.9156C5.2095 22.978 5.16675 23.0331 5.13337 23.0914C5.10375 23.0526 5.05068 23.0151 5.04824 22.9746C5.03868 22.8169 5.04506 22.6581 5.04562 22.4997Z" fill="#CECDB7"/>
<path fill-rule="evenodd" clip-rule="evenodd" d="M5.13337 23.0914C5.16675 23.0331 5.2095 22.978 5.23181 22.9156C5.34 22.613 5.44162 22.3081 5.54943 22.0054C5.56162 21.9711 5.59856 21.9454 5.62406 21.916L5.62612 22.5985L5.39775 23.1843L5.13337 23.0914Z" fill="#DBDAC7"/>
<path fill-rule="evenodd" clip-rule="evenodd" d="M5.39775 23.1843L5.62612 22.5985L5.67318 23.2917L5.39775 23.1843Z" fill="#EBE9DC"/>
<path fill-rule="evenodd" clip-rule="evenodd" d="M5.78849 20.6498C5.75174 20.491 5.8125 20.3654 5.92256 20.2566L5.98574 20.2998L5.78849 20.6498Z" fill="#CECDB7"/>
<path fill-rule="evenodd" clip-rule="evenodd" d="M5.19806 17.7012L5.18587 17.6991L5.17387 17.7012L5.20237 17.596L5.19806 17.7012Z" fill="#4FAA41"/>
</svg>
