<svg width="24" height="24" viewBox="0 0 24 24" fill="none" xmlns="http://www.w3.org/2000/svg">
<path d="M21.7214 18.1901C20.4346 18.155 19.4519 18.2748 18.6117 18.629C18.373 18.7297 17.992 18.7325 17.953 19.0316C18.0842 19.169 18.1047 19.3745 18.2089 19.5436C18.4096 19.868 18.7482 20.3034 19.0504 20.5314C19.3808 20.7808 19.7211 21.0472 20.0751 21.263C20.7047 21.6468 21.4077 21.8662 22.0139 22.2508C22.3712 22.4776 22.7262 22.7632 23.0747 23.019C23.2472 23.1455 23.3629 23.3422 23.587 23.4215V23.3851C23.4692 23.2351 23.4389 23.0293 23.3309 22.8727L22.8552 22.397C22.3902 21.7798 21.7997 21.2375 21.1722 20.7873C20.6717 20.4281 19.5518 19.9428 19.3431 19.3606L19.3066 19.3241C19.6613 19.284 20.0766 19.1557 20.4042 19.0678C20.9543 18.9204 21.4459 18.9585 22.0139 18.8118L22.7821 18.5923V18.446C22.495 18.1515 22.2902 17.7615 21.9773 17.4948C21.1579 16.7973 20.2639 16.1004 19.3433 15.5191C18.8326 15.197 18.2016 14.9876 17.6603 14.7144C17.4782 14.6223 17.1584 14.5745 17.0382 14.4215C16.7537 14.0593 16.5991 13.5999 16.3799 13.1778C15.9207 12.2934 15.4697 11.3276 15.0629 10.397C14.7854 9.76252 14.6041 9.13702 14.2579 8.56777C12.5967 5.83646 10.8087 4.18815 8.03874 2.56777C7.44924 2.22315 6.73955 2.08721 5.98955 1.90909C5.58737 1.8849 5.1848 1.86034 4.78243 1.83577C4.53662 1.7334 4.28124 1.43284 4.0508 1.28696C3.13318 0.707212 0.779303 -0.553726 0.0998034 1.10415C-0.329384 2.15059 0.741241 3.17134 1.12393 3.70177C1.3928 4.0734 1.73687 4.49059 1.92887 4.9089C2.05524 5.18396 2.07699 5.45977 2.18518 5.75059C2.45087 6.46721 2.68243 7.24684 3.02649 7.9089C3.2003 8.24415 3.39193 8.59702 3.61187 8.89665C3.74649 9.08059 3.97768 9.16159 4.01405 9.44546C3.7883 9.76159 3.77537 10.2525 3.64843 10.653C3.07655 12.4558 3.29237 14.6968 4.12412 16.031C4.37912 16.4409 4.98043 17.3193 5.80693 16.9822C6.52993 16.6878 6.36849 15.7751 6.5753 14.97C6.62199 14.7875 6.5933 14.6533 6.68499 14.531V14.5676L7.34368 15.8846C7.83118 16.6696 8.69593 17.49 9.42905 18.0435C9.80912 18.3305 10.1084 18.8266 10.5998 18.9946V18.9579H10.5632C10.468 18.8096 10.3189 18.7481 10.1974 18.6288C9.91111 18.3482 9.59274 17.9992 9.35612 17.6776C8.68937 16.7726 8.10024 15.782 7.56343 14.751C7.30693 14.2584 7.08399 13.7154 6.86799 13.2142C6.78474 13.0211 6.78587 12.7288 6.61224 12.6288C6.37543 12.996 6.02687 13.293 5.84387 13.7265C5.55118 14.4195 5.51349 15.2647 5.40493 16.1411C5.3408 16.164 5.3693 16.1482 5.33162 16.1775C4.82199 16.0546 4.64312 15.5302 4.45355 15.08C3.97468 13.9419 3.88562 12.1096 4.30712 10.7996C4.41624 10.4604 4.90899 9.39315 4.70949 9.07984C4.61424 8.76746 4.29999 8.58671 4.1243 8.34802C3.90662 8.0529 3.68949 7.6644 3.53855 7.32352C3.14668 6.43646 2.96368 5.44027 2.55099 4.54327C2.35355 4.11446 2.01999 3.6804 1.74605 3.2994C1.44287 2.87696 1.10312 2.5659 0.867991 2.05534C0.784366 1.87384 0.670928 1.58321 0.794678 1.39665C0.834053 1.27084 0.889928 1.21834 1.01424 1.17727C1.22649 1.01359 1.81749 1.23165 2.03837 1.32334C2.62505 1.56709 3.1148 1.79921 3.61187 2.12846C3.85018 2.28671 4.09168 2.59252 4.38005 2.67727H4.7093C5.22437 2.79559 5.8013 2.71384 6.28262 2.86009C7.13312 3.11846 7.8953 3.52065 8.58737 3.95771C10.696 5.28934 12.4202 7.18459 13.5996 9.44565C13.7894 9.80977 13.8715 10.157 14.0386 10.5433C14.3757 11.322 14.8004 12.1231 15.1358 12.8848C15.4707 13.6445 15.7969 14.4112 16.2702 15.0435C16.519 15.3757 17.4797 15.554 17.9166 15.7387C18.2226 15.8679 18.7242 16.0029 19.0142 16.1775C19.5679 16.5116 20.1046 16.9093 20.6241 17.2753C20.8834 17.4581 21.6816 17.8595 21.7214 18.1901ZM5.3678 4.25115C5.09949 4.24609 4.90974 4.2804 4.70912 4.32409V4.36065H4.74568C4.87374 4.62352 5.09968 4.79302 5.25774 5.01934C5.37962 5.27565 5.50168 5.53159 5.62374 5.78752L5.66012 5.75134C5.8868 5.5914 5.99049 5.33621 5.98918 4.94621C5.89843 4.85077 5.88512 4.73115 5.80637 4.61715C5.70212 4.46509 5.4998 4.37865 5.3678 4.25115Z" fill="#00618A"/>
</svg>
