<svg width="21" height="23" viewBox="0 0 21 23" fill="none" xmlns="http://www.w3.org/2000/svg">
<path d="M19.2696 5.31544L11.0014 0.514498C10.4799 0.217498 9.801 0.217498 9.27544 0.514498L0.918938 5.31544C0.380813 5.625 0 6.20681 0 6.82912V16.4182C0 17.0406 0.39075 17.6226 0.928875 17.9338L3.13669 19.1878C4.19194 19.7076 4.56488 19.7076 5.04506 19.7076C6.6075 19.7076 7.5 18.7627 7.5 17.1148V7.64794C7.5 7.51425 7.43044 7.31531 7.29919 7.31531H6.24487C6.11137 7.31531 5.8125 7.51425 5.8125 7.64775V17.1146C5.8125 17.8451 5.15175 18.5721 3.91687 17.9546L1.63556 16.6397C1.55606 16.5966 1.5 16.5098 1.5 16.4182V6.82912C1.5 6.73875 1.60406 6.648 1.68413 6.60169L10.0136 1.809C10.0914 1.76494 10.2058 1.76494 10.2834 1.809L18.5113 6.60056C18.5901 6.648 18.5623 6.73594 18.5623 6.82912V16.4182C18.5623 16.5098 18.5966 16.5988 18.5188 16.6429L10.2527 21.4384C10.1818 21.4809 10.0939 21.4809 10.0162 21.4384L7.89619 20.1729C7.83225 20.1358 7.75631 20.1225 7.695 20.1568C7.10513 20.4911 6.99637 20.5356 6.44306 20.7274C6.30694 20.7748 6.10612 20.8571 6.51994 21.0891L9.29456 22.7304C9.55946 22.8834 9.85997 22.964 10.1659 22.9641C10.4738 22.9641 10.7753 22.8842 11.0409 22.7304L19.2694 17.9338C19.8075 17.6203 20.0625 17.0406 20.0625 16.4182V6.82912C20.0625 6.20681 19.8075 5.6265 19.2696 5.31544ZM12.7331 14.8987C10.5345 14.8987 10.0502 14.2922 9.88875 13.1989C9.87 13.0811 9.77006 12.9403 9.65025 12.9403H8.57569C8.44275 12.9403 8.33587 13.1016 8.33587 13.2339C8.33587 14.6338 9.09694 16.3299 12.7333 16.3299C15.3656 16.3299 16.8748 15.3071 16.8748 13.497C16.8748 11.7022 15.6622 11.2312 13.1094 10.8934C10.5291 10.5523 10.2669 10.38 10.2669 9.7755C10.2669 9.27712 10.4889 8.61244 12.3996 8.61244C14.1067 8.61244 14.736 8.97881 14.9949 10.1295C15.0171 10.2377 15.1159 10.3153 15.2274 10.3153H16.3063C16.3727 10.3153 16.4361 10.2885 16.4826 10.2411C16.5276 10.1901 16.5514 10.1261 16.5454 10.0575C16.3783 8.076 15.0619 7.15256 12.3994 7.15256C10.0311 7.15256 8.61825 8.15269 8.61825 9.82912C8.61825 11.6475 10.0239 12.15 12.2974 12.3748C15.0171 12.6414 15.2286 13.0389 15.2286 13.5739C15.2286 14.5029 14.4827 14.8987 12.7331 14.8987Z" fill="#83CD29"/>
</svg>
