<svg width="24" height="22" viewBox="0 0 24 22" fill="none" xmlns="http://www.w3.org/2000/svg">
<path d="M11.7375 13.5829C12.918 13.5829 13.875 12.6259 13.875 11.4454C13.875 10.2649 12.918 9.30786 11.7375 9.30786C10.557 9.30786 9.6 10.2649 9.6 11.4454C9.6 12.6259 10.557 13.5829 11.7375 13.5829Z" fill="#61DAFB"/>
<path d="M19.8562 7.92036C19.4437 7.77036 19.0125 7.62036 18.5625 7.48911C18.675 7.03911 18.7687 6.58911 18.8437 6.15786C19.2375 3.68286 18.8062 1.93911 17.6062 1.26411C17.25 1.05786 16.8562 0.964111 16.4062 0.964111C15.0937 0.964111 13.425 1.93911 11.7375 3.57036C10.05 1.93911 8.38125 0.964111 7.06875 0.964111C6.61875 0.964111 6.225 1.05786 5.86875 1.26411C4.66875 1.95786 4.2375 3.70161 4.63125 6.15786C4.70625 6.58911 4.8 7.03911 4.9125 7.48911C4.4625 7.62036 4.03125 7.75161 3.61875 7.92036C1.275 8.82036 0 10.0579 0 11.4454C0 12.8329 1.29375 14.0704 3.61875 14.9704C4.03125 15.1204 4.4625 15.2704 4.9125 15.4016C4.8 15.8516 4.70625 16.3016 4.63125 16.7329C4.2375 19.2079 4.66875 20.9516 5.86875 21.6266C6.225 21.8329 6.61875 21.9266 7.06875 21.9266C8.4 21.9266 10.0687 20.9516 11.7375 19.3204C13.425 20.9516 15.0937 21.9266 16.4062 21.9266C16.8562 21.9266 17.25 21.8329 17.6062 21.6266C18.8062 20.9329 19.2375 19.1891 18.8437 16.7329C18.7687 16.3016 18.675 15.8516 18.5625 15.4016C19.0125 15.2704 19.4437 15.1391 19.8562 14.9704C22.2 14.0704 23.475 12.8329 23.475 11.4454C23.475 10.0579 22.2 8.82036 19.8562 7.92036ZM17.0812 2.20161C17.85 2.65161 18.1125 4.03911 17.7937 6.00786C17.7375 6.40161 17.6437 6.81411 17.5312 7.24536C16.5562 7.02036 15.525 6.87036 14.4375 6.77661C13.8 5.87661 13.1437 5.07036 12.4875 4.33911C13.875 2.97036 15.2812 2.03286 16.425 2.03286C16.6687 2.03286 16.8937 2.08911 17.0812 2.20161ZM14.9812 13.3204C14.6437 13.9204 14.25 14.5204 13.8375 15.1204C13.1437 15.1766 12.45 15.1954 11.7375 15.1954C11.0062 15.1954 10.3125 15.1766 9.6375 15.1204C9.225 14.5204 8.85 13.9204 8.5125 13.3204C8.15625 12.7016 7.81875 12.0641 7.51875 11.4454C7.81875 10.8266 8.15625 10.1891 8.5125 9.57036C8.85 8.97036 9.24375 8.37036 9.65625 7.77036C10.35 7.71411 11.0437 7.69536 11.7562 7.69536C12.4875 7.69536 13.1812 7.71411 13.8562 7.77036C14.2687 8.37036 14.6437 8.97036 14.9812 9.57036C15.3375 10.1891 15.675 10.8266 15.975 11.4454C15.6562 12.0641 15.3375 12.6829 14.9812 13.3204ZM16.5375 12.7016C16.8187 13.3579 17.0437 13.9954 17.25 14.6329C16.6125 14.7829 15.9375 14.8954 15.225 14.9891C15.45 14.6329 15.6937 14.2579 15.9 13.8641C16.125 13.4704 16.3312 13.0766 16.5375 12.7016ZM11.7375 17.7829C11.2875 17.2954 10.8562 16.7704 10.4437 16.2266C10.875 16.2454 11.3062 16.2641 11.7375 16.2641C12.1687 16.2641 12.6 16.2454 13.0312 16.2266C12.6187 16.7704 12.1875 17.2954 11.7375 17.7829ZM8.25 14.9704C7.5375 14.8766 6.8625 14.7641 6.225 14.6141C6.43125 13.9954 6.65625 13.3391 6.9375 12.6829C7.14375 13.0579 7.35 13.4516 7.575 13.8266C7.8 14.2391 8.025 14.5954 8.25 14.9704ZM6.9375 10.1891C6.65625 9.53286 6.43125 8.89536 6.225 8.25786C6.8625 8.10786 7.5375 7.99536 8.25 7.90161C8.025 8.25786 7.78125 8.63286 7.575 9.02661C7.35 9.42036 7.14375 9.81411 6.9375 10.1891ZM11.7375 5.10786C12.1875 5.59536 12.6187 6.12036 13.0312 6.66411C12.6 6.64536 12.1687 6.62661 11.7375 6.62661C11.3062 6.62661 10.875 6.64536 10.4437 6.66411C10.8562 6.12036 11.2875 5.59536 11.7375 5.10786ZM15.9 9.04536L15.225 7.92036C15.9375 8.01411 16.6125 8.12661 17.25 8.27661C17.0437 8.89536 16.8187 9.55161 16.5375 10.2079C16.3312 9.81411 16.125 9.42036 15.9 9.04536ZM5.68125 6.00786C5.3625 4.03911 5.625 2.65161 6.39375 2.20161C6.58125 2.08911 6.80625 2.03286 7.05 2.03286C8.175 2.03286 9.58125 2.95161 10.9875 4.33911C10.3312 5.05161 9.675 5.87661 9.0375 6.77661C7.95 6.87036 6.91875 7.03911 5.94375 7.24536C5.83125 6.81411 5.75625 6.40161 5.68125 6.00786ZM1.05 11.4454C1.05 10.5641 2.11875 9.62661 3.99375 8.93286C4.36875 8.78286 4.78125 8.65161 5.19375 8.53911C5.49375 9.47661 5.86875 10.4704 6.31875 11.4641C5.86875 12.4579 5.475 13.4329 5.19375 14.3704C2.60625 13.6204 1.05 12.4954 1.05 11.4454ZM6.39375 20.6891C5.625 20.2391 5.3625 18.8516 5.68125 16.8829C5.7375 16.4891 5.83125 16.0766 5.94375 15.6454C6.91875 15.8704 7.95 16.0204 9.0375 16.1141C9.675 17.0141 10.3312 17.8204 10.9875 18.5516C9.6 19.9204 8.19375 20.8579 7.05 20.8579C6.80625 20.8579 6.58125 20.8016 6.39375 20.6891ZM17.7937 16.8829C18.1125 18.8516 17.85 20.2391 17.0812 20.6891C16.8937 20.8016 16.6687 20.8579 16.425 20.8579C15.3 20.8579 13.8937 19.9391 12.4875 18.5516C13.1437 17.8391 13.8 17.0141 14.4375 16.1141C15.525 16.0204 16.5562 15.8516 17.5312 15.6454C17.6437 16.0766 17.7187 16.4891 17.7937 16.8829ZM19.4812 13.9579C19.1062 14.1079 18.6937 14.2391 18.2812 14.3516C17.9812 13.4141 17.6062 12.4204 17.1562 11.4266C17.6062 10.4329 18 9.45786 18.2812 8.52036C20.8687 9.27036 22.425 10.3954 22.425 11.4454C22.425 12.3266 21.3375 13.2641 19.4812 13.9579Z" fill="#61DAFB"/>
</svg>
